<?xml version="1.0" encoding="UTF-8"?>
<!DOCTYPE svg PUBLIC "-//W3C//DTD SVG 1.1//EN" "http://www.w3.org/Graphics/SVG/1.1/DTD/svg11.dtd">

<svg xmlns="http://www.w3.org/2000/svg" version="1.1" width="500px" height="500px" style="shape-rendering:geometricPrecision; text-rendering:geometricPrecision; image-rendering:optimizeQuality; clip-rule:evenodd" xmlns:xlink="http://www.w3.org/1999/xlink" fill="none">
<g><path style="opacity:1" fill="#042b6f" d="M -0.5,-0.5 C 26.8333,-0.5 54.1667,-0.5 81.5,-0.5C 82.254,1.50534 83.4207,2.17201 85,1.5C 102.859,11.9805 115.026,27.4805 121.5,48C 121.5,50 121.5,52 121.5,54C 122.167,54.6667 122.833,55.3333 123.5,56C 123.5,63.3333 123.5,70.6667 123.5,78C 122.412,81.4812 121.079,84.8146 119.5,88C 120.108,90.1841 119.441,92.1841 117.5,94C 118.458,95.1475 118.125,96.1475 116.5,97C 116.833,97.3333 117.167,97.6667 117.5,98C 113.517,104.257 109.351,110.424 105,116.5C 99.944,122.157 94.6107,126.824 89,130.5C 88.6667,130.167 88.3333,129.833 88,129.5C 84.837,131.874 81.1703,134.207 77,136.5C 75.8525,135.542 74.8525,135.875 74,137.5C 72.8525,136.542 71.8525,136.875 71,138.5C 70.6667,138.167 70.3333,137.833 70,137.5C 67.6667,138.5 65.3333,139.5 63,140.5C 53.4118,141.009 44.0785,141.009 35,140.5C 28.7863,138.458 23.1196,136.124 18,133.5C 17.6667,133.833 17.3333,134.167 17,134.5C 13.754,132.521 10.754,130.188 8,127.5C 7.66667,127.833 7.33333,128.167 7,128.5C 4.63029,125.961 2.13029,123.628 -0.5,121.5C -0.5,114.833 -0.5,108.167 -0.5,101.5C 2.55685,106.066 6.22352,110.233 10.5,114C 14.9043,117.174 19.071,120.007 23,122.5C 23.3333,122.167 23.6667,121.833 24,121.5C 27.4638,123.547 31.1305,125.213 35,126.5C 35.3333,126.167 35.6667,125.833 36,125.5C 39.5734,126.867 43.2401,127.867 47,128.5C 49.4097,127.99 52.0764,127.99 55,128.5C 58.5566,126.357 61.89,125.691 65,126.5C 82.1108,120.809 95.4441,109.476 105,92.5C 106.821,85.6878 108.654,79.1878 110.5,73C 110.5,69 110.5,65 110.5,61C 109.833,59 109.167,57 108.5,55C 109.458,53.8525 109.125,52.8525 107.5,52C 107.833,51.6667 108.167,51.3333 108.5,51C 107.051,46.7021 105.218,42.2021 103,37.5C 94.2452,24.6616 83.5785,15.3282 71,9.5C 70.6667,9.83333 70.3333,10.1667 70,10.5C 53.8844,4.27283 38.5511,4.93949 24,12.5C 23.6667,12.1667 23.3333,11.8333 23,11.5C 18.9262,14.0323 15.2595,17.0323 12,20.5C 11.6667,20.1667 11.3333,19.8333 11,19.5C 6.53138,23.4566 2.69805,27.7899 -0.5,32.5C -0.5,21.5 -0.5,10.5 -0.5,-0.5 Z"/></g>
<g><path style="opacity:1" fill="#052766" d="M 81.5,-0.5 C 86.1667,-0.5 90.8333,-0.5 95.5,-0.5C 104.471,6.30515 112.304,14.3052 119,23.5C 121.31,28.6296 123.977,33.9629 127,39.5C 127.373,41.6982 127.873,43.8649 128.5,46C 128.355,46.772 128.022,47.4387 127.5,48C 129.28,50.8212 130.614,53.4879 131.5,56C 131.375,62.3926 131.375,69.0593 131.5,76C 130.237,77.7051 129.903,79.3718 130.5,81C 129.991,83.5697 128.991,85.9031 127.5,88C 127.833,88.3333 128.167,88.6667 128.5,89C 119.751,115.734 102.585,134.234 77,144.5C 76.6667,144.167 76.3333,143.833 76,143.5C 74.1841,145.441 72.1841,146.108 70,145.5C 66.4434,147.643 63.11,148.309 60,147.5C 53.1827,149.875 46.516,149.875 40,147.5C 38.3333,147.833 36.6667,148.167 35,148.5C 27.9251,145.808 20.7584,143.308 13.5,141C 10.7336,139.533 8.23359,137.7 6,135.5C 5.66667,135.833 5.33333,136.167 5,136.5C 3.29617,134.627 1.46283,132.96 -0.5,131.5C -0.5,128.167 -0.5,124.833 -0.5,121.5C 2.13029,123.628 4.63029,125.961 7,128.5C 7.33333,128.167 7.66667,127.833 8,127.5C 10.754,130.188 13.754,132.521 17,134.5C 17.3333,134.167 17.6667,133.833 18,133.5C 23.1196,136.124 28.7863,138.458 35,140.5C 44.0785,141.009 53.4118,141.009 63,140.5C 65.3333,139.5 67.6667,138.5 70,137.5C 70.3333,137.833 70.6667,138.167 71,138.5C 71.8525,136.875 72.8525,136.542 74,137.5C 74.8525,135.875 75.8525,135.542 77,136.5C 81.1703,134.207 84.837,131.874 88,129.5C 88.3333,129.833 88.6667,130.167 89,130.5C 94.6107,126.824 99.944,122.157 105,116.5C 109.351,110.424 113.517,104.257 117.5,98C 117.167,97.6667 116.833,97.3333 116.5,97C 118.125,96.1475 118.458,95.1475 117.5,94C 119.441,92.1841 120.108,90.1841 119.5,88C 121.079,84.8146 122.412,81.4812 123.5,78C 123.5,70.6667 123.5,63.3333 123.5,56C 122.833,55.3333 122.167,54.6667 121.5,54C 121.5,52 121.5,50 121.5,48C 115.026,27.4805 102.859,11.9805 85,1.5C 83.4207,2.17201 82.254,1.50534 81.5,-0.5 Z"/></g>
<g><path style="opacity:1" fill="#06235f" d="M 95.5,-0.5 C 101.167,-0.5 106.833,-0.5 112.5,-0.5C 115.796,3.2976 119.296,6.96427 123,10.5C 123.617,11.4491 123.451,12.2825 122.5,13C 125.675,15.843 128.509,19.0097 131,22.5C 133.048,28.3496 135.548,34.0163 138.5,39.5C 137.332,40.9056 137.665,42.0723 139.5,43C 139.011,46.4081 139.678,49.7414 141.5,53C 140.146,54.9571 140.479,56.9571 142.5,59C 141.763,64.5622 141.763,69.8955 142.5,75C 141.318,79.867 139.985,84.7003 138.5,89.5C 138.709,90.086 139.043,90.586 139.5,91C 137.299,92.6845 136.633,94.6845 137.5,97C 135.02,100.395 133.52,104.228 133,108.5C 128.91,113.018 125.577,118.018 123,123.5C 116.833,129.667 110.667,135.833 104.5,142C 103.207,142.49 101.873,142.657 100.5,142.5C 100.688,144.103 100.188,145.437 99,146.5C 92.9979,147.223 87.6645,149.89 83,154.5C 81.3333,154.167 79.6667,153.833 78,153.5C 74.6097,155.352 71.2764,157.019 68,158.5C 66.0258,158.353 64.0258,158.019 62,157.5C 61,158.167 60,158.833 59,159.5C 51.9816,158.871 44.8149,158.871 37.5,159.5C 35.8129,159.24 34.3129,158.573 33,157.5C 32.6667,157.833 32.3333,158.167 32,158.5C 28.5545,157.851 25.3878,156.517 22.5,154.5C 21.914,154.709 21.414,155.043 21,155.5C 19.3333,154.167 17.6667,152.833 16,151.5C 15.586,151.957 15.086,152.291 14.5,152.5C 10.0876,151.168 5.75431,149.501 1.5,147.5C 1.77089,145.62 1.10422,144.287 -0.5,143.5C -0.5,139.5 -0.5,135.5 -0.5,131.5C 1.46283,132.96 3.29617,134.627 5,136.5C 5.33333,136.167 5.66667,135.833 6,135.5C 8.23359,137.7 10.7336,139.533 13.5,141C 20.7584,143.308 27.9251,145.808 35,148.5C 36.6667,148.167 38.3333,147.833 40,147.5C 46.516,149.875 53.1827,149.875 60,147.5C 63.11,148.309 66.4434,147.643 70,145.5C 72.1841,146.108 74.1841,145.441 76,143.5C 76.3333,143.833 76.6667,144.167 77,144.5C 102.585,134.234 119.751,115.734 128.5,89C 128.167,88.6667 127.833,88.3333 127.5,88C 128.991,85.9031 129.991,83.5697 130.5,81C 129.903,79.3718 130.237,77.7051 131.5,76C 131.375,69.0593 131.375,62.3926 131.5,56C 130.614,53.4879 129.28,50.8212 127.5,48C 128.022,47.4387 128.355,46.772 128.5,46C 127.873,43.8649 127.373,41.6982 127,39.5C 123.977,33.9629 121.31,28.6296 119,23.5C 112.304,14.3052 104.471,6.30515 95.5,-0.5 Z"/></g>
<g><path style="opacity:1" fill="#071a4d" d="M 125.5,-0.5 C 135.167,-0.5 144.833,-0.5 154.5,-0.5C 154.5,13.8333 154.5,28.1667 154.5,42.5C 154.5,61.5 154.5,80.5 154.5,99.5C 146.328,123.265 131.828,142.932 111,158.5C 110.667,158.167 110.333,157.833 110,157.5C 108.293,159.037 106.793,160.704 105.5,162.5C 99.5,162.5 93.5,162.5 87.5,162.5C 92.4223,159.785 97.2557,156.785 102,153.5C 102.333,153.833 102.667,154.167 103,154.5C 104.667,152.833 106.333,151.167 108,149.5C 108.333,149.833 108.667,150.167 109,150.5C 117.667,142.808 125.833,134.641 133.5,126C 133.167,125.667 132.833,125.333 132.5,125C 134.489,122.044 136.656,119.211 139,116.5C 140.312,113.559 141.812,110.726 143.5,108C 143.167,107.667 142.833,107.333 142.5,107C 143.833,104.333 145.167,101.667 146.5,99C 146.167,98.6667 145.833,98.3333 145.5,98C 146.833,95.3333 148.167,92.6667 149.5,90C 149.5,87.3333 149.5,84.6667 149.5,82C 150.167,81.3333 150.833,80.6667 151.5,80C 151.375,72.2741 151.375,64.2741 151.5,56C 150.128,49.8957 148.461,43.5624 146.5,37C 146.833,36.6667 147.167,36.3333 147.5,36C 144.058,29.9596 141.225,23.7929 139,17.5C 134.283,11.623 129.783,5.62295 125.5,-0.5 Z"/></g>
<g><path style="opacity:1" fill="#0c0c38" d="M 154.5,-0.5 C 217.833,-0.5 281.167,-0.5 344.5,-0.5C 344.5,13.8333 344.5,28.1667 344.5,42.5C 281.167,42.5 217.833,42.5 154.5,42.5C 154.5,28.1667 154.5,13.8333 154.5,-0.5 Z"/></g>
<g><path style="opacity:1" fill="#071a4d" d="M 344.5,-0.5 C 353.833,-0.5 363.167,-0.5 372.5,-0.5C 366.891,7.50745 361.558,15.6741 356.5,24C 356.5,25.3333 356.5,26.6667 356.5,28C 353.297,31.7374 351.297,35.7374 350.5,40C 351.097,41.6282 350.763,43.2949 349.5,45C 350.097,46.6282 349.763,48.2949 348.5,50C 348.833,50.3333 349.167,50.6667 349.5,51C 343.186,87.5423 355.686,120.042 387,148.5C 387.333,148.167 387.667,147.833 388,147.5C 391.526,151.549 395.526,154.216 400,155.5C 401.101,157.394 402.434,158.061 404,157.5C 405.101,159.394 406.434,160.061 408,159.5C 409.409,160.781 410.909,161.781 412.5,162.5C 411.833,162.5 411.167,162.5 410.5,162.5C 405.167,162.5 399.833,162.5 394.5,162.5C 393.746,160.495 392.579,159.828 391,160.5C 384.35,155.804 378.683,150.804 374,145.5C 373.667,145.833 373.333,146.167 373,146.5C 372,144.833 371,143.167 370,141.5C 369.667,141.833 369.333,142.167 369,142.5C 368.667,141.5 368.333,140.5 368,139.5C 367.667,139.833 367.333,140.167 367,140.5C 361.5,132.333 356,124.167 350.5,116C 350.833,115.667 351.167,115.333 351.5,115C 349.5,111 347.5,107 345.5,103C 346.566,101.841 346.233,101.008 344.5,100.5C 344.5,81.1667 344.5,61.8333 344.5,42.5C 344.5,28.1667 344.5,13.8333 344.5,-0.5 Z"/></g>
<g><path style="opacity:1" fill="#06235f" d="M 384.5,-0.5 C 390.5,-0.5 396.5,-0.5 402.5,-0.5C 391.241,8.05305 382.241,18.553 375.5,31C 375.833,31.3333 376.167,31.6667 376.5,32C 374.833,35 373.167,38 371.5,41C 371.833,41.3333 372.167,41.6667 372.5,42C 371.009,44.0969 370.009,46.4303 369.5,49C 370.458,50.1475 370.125,51.1475 368.5,52C 367.167,62 367.167,72 368.5,82C 373.352,101.633 383.518,118.466 399,132.5C 399.333,132.167 399.667,131.833 400,131.5C 401.667,133.167 403.333,134.833 405,136.5C 405.333,136.167 405.667,135.833 406,135.5C 410.688,140.133 416.021,142.799 422,143.5C 423.892,144.13 425.559,145.13 427,146.5C 427.333,146.167 427.667,145.833 428,145.5C 430.333,146.5 432.667,147.5 435,148.5C 444.023,148.738 453.357,148.738 463,148.5C 465.333,147.5 467.667,146.5 470,145.5C 472.184,146.108 474.184,145.441 476,143.5C 478.184,144.108 480.184,143.441 482,141.5C 483.566,142.061 484.899,141.394 486,139.5C 486.333,139.833 486.667,140.167 487,140.5C 490.246,138.521 493.246,136.188 496,133.5C 496.333,133.833 496.667,134.167 497,134.5C 497.708,133.619 498.542,132.953 499.5,132.5C 499.5,136.5 499.5,140.5 499.5,144.5C 493.537,147.037 488.037,150.371 483,154.5C 481.333,154.167 479.667,153.833 478,153.5C 474.61,155.352 471.276,157.019 468,158.5C 456.254,158.669 444.254,158.669 432,158.5C 428.554,157.851 425.388,156.517 422.5,154.5C 421.914,154.709 421.414,155.043 421,155.5C 419.333,154.167 417.667,152.833 416,151.5C 415.586,151.957 415.086,152.291 414.5,152.5C 412.267,152.136 410.434,151.136 409,149.5C 407.387,150.622 406.22,150.122 405.5,148C 403.122,147.489 400.788,146.822 398.5,146C 392.99,140.843 387.157,135.343 381,129.5C 378.814,125.802 376.147,122.468 373,119.5C 374.012,116.659 372.845,115.326 369.5,115.5C 369.657,114.127 369.49,112.793 369,111.5C 366.596,106.326 363.763,100.993 360.5,95.5C 360.709,94.914 361.043,94.414 361.5,94C 359.166,90.1913 358.499,86.5246 359.5,83C 358.12,81.6764 357.786,80.3431 358.5,79C 357.711,76.733 357.044,74.3997 356.5,72C 357.424,70.85 357.424,69.85 356.5,69C 359.167,68.3333 359.167,67.6667 356.5,67C 359.167,66.3333 359.167,65.6667 356.5,65C 359.167,64.3333 359.167,63.6667 356.5,63C 357.218,60.5393 357.885,58.0393 358.5,55.5C 357.653,53.939 357.986,52.439 359.5,51C 358.949,49.6015 358.616,48.2682 358.5,47C 361.605,42.5891 363.605,37.9224 364.5,33C 364.043,32.586 363.709,32.086 363.5,31.5C 364.951,30.094 366.284,28.594 367.5,27C 367.043,26.586 366.709,26.086 366.5,25.5C 368.711,21.3562 371.045,17.3562 373.5,13.5C 375.149,12.3523 376.649,11.019 378,9.5C 379.992,6.01723 382.158,2.6839 384.5,-0.5 Z"/></g>
<g><path style="opacity:1" fill="#052767" d="M 402.5,-0.5 C 407.833,-0.5 413.167,-0.5 418.5,-0.5C 396.147,10.9485 382.147,28.4485 376.5,52C 375.535,61.8859 375.535,71.8859 376.5,82C 379.312,92.1039 383.478,101.604 389,110.5C 397.415,120.3 406.748,128.3 417,134.5C 417.333,134.167 417.667,133.833 418,133.5C 423.12,136.124 428.786,138.458 435,140.5C 436.667,140.167 438.333,139.833 440,139.5C 442,140.167 444,140.833 446,141.5C 448.436,140.903 451.103,140.903 454,141.5C 457.339,139.988 460.339,139.654 463,140.5C 465.333,139.5 467.667,138.5 470,137.5C 471.147,138.458 472.147,138.125 473,136.5C 474.333,136.5 475.667,136.5 477,136.5C 479.616,135.19 481.949,133.524 484,131.5C 485.566,132.061 486.899,131.394 488,129.5C 488.333,129.833 488.667,130.167 489,130.5C 492.339,126.841 495.839,124.174 499.5,122.5C 499.5,125.833 499.5,129.167 499.5,132.5C 498.542,132.953 497.708,133.619 497,134.5C 496.667,134.167 496.333,133.833 496,133.5C 493.246,136.188 490.246,138.521 487,140.5C 486.667,140.167 486.333,139.833 486,139.5C 484.899,141.394 483.566,142.061 482,141.5C 480.184,143.441 478.184,144.108 476,143.5C 474.184,145.441 472.184,146.108 470,145.5C 467.667,146.5 465.333,147.5 463,148.5C 453.357,148.738 444.023,148.738 435,148.5C 432.667,147.5 430.333,146.5 428,145.5C 427.667,145.833 427.333,146.167 427,146.5C 425.559,145.13 423.892,144.13 422,143.5C 416.021,142.799 410.688,140.133 406,135.5C 405.667,135.833 405.333,136.167 405,136.5C 403.333,134.833 401.667,133.167 400,131.5C 399.667,131.833 399.333,132.167 399,132.5C 383.518,118.466 373.352,101.633 368.5,82C 367.167,72 367.167,62 368.5,52C 370.125,51.1475 370.458,50.1475 369.5,49C 370.009,46.4303 371.009,44.0969 372.5,42C 372.167,41.6667 371.833,41.3333 371.5,41C 373.167,38 374.833,35 376.5,32C 376.167,31.6667 375.833,31.3333 375.5,31C 382.241,18.553 391.241,8.05305 402.5,-0.5 Z"/></g>
<g><path style="opacity:1" fill="#042c71" d="M 418.5,-0.5 C 445.5,-0.5 472.5,-0.5 499.5,-0.5C 499.5,10.1667 499.5,20.8333 499.5,31.5C 493.842,26.3422 488.342,21.0089 483,15.5C 482.667,15.8333 482.333,16.1667 482,16.5C 478.546,14.4875 474.879,12.1542 471,9.5C 470.667,9.83333 470.333,10.1667 470,10.5C 453.884,4.27283 438.551,4.93949 424,12.5C 423.667,12.1667 423.333,11.8333 423,11.5C 418.926,14.0323 415.26,17.0323 412,20.5C 411.667,20.1667 411.333,19.8333 411,19.5C 392.334,37.4827 385.501,56.9827 390.5,78C 390.5,80 390.5,82 390.5,84C 398.163,105.663 412.996,119.829 435,126.5C 435.333,126.167 435.667,125.833 436,125.5C 439.573,126.867 443.24,127.867 447,128.5C 449.41,127.99 452.076,127.99 455,128.5C 458.557,126.357 461.89,125.691 465,126.5C 466.945,124.819 468.945,124.152 471,124.5C 474.667,122.167 478.333,119.833 482,117.5C 482.333,117.833 482.667,118.167 483,118.5C 488.673,113.327 494.173,107.994 499.5,102.5C 499.5,109.167 499.5,115.833 499.5,122.5C 495.839,124.174 492.339,126.841 489,130.5C 488.667,130.167 488.333,129.833 488,129.5C 486.899,131.394 485.566,132.061 484,131.5C 481.949,133.524 479.616,135.19 477,136.5C 475.667,136.5 474.333,136.5 473,136.5C 472.147,138.125 471.147,138.458 470,137.5C 467.667,138.5 465.333,139.5 463,140.5C 460.339,139.654 457.339,139.988 454,141.5C 451.103,140.903 448.436,140.903 446,141.5C 444,140.833 442,140.167 440,139.5C 438.333,139.833 436.667,140.167 435,140.5C 428.786,138.458 423.12,136.124 418,133.5C 417.667,133.833 417.333,134.167 417,134.5C 406.748,128.3 397.415,120.3 389,110.5C 383.478,101.604 379.312,92.1039 376.5,82C 375.535,71.8859 375.535,61.8859 376.5,52C 382.147,28.4485 396.147,10.9485 418.5,-0.5 Z"/></g>
<g><path style="opacity:1" fill="#043079" d="M -0.5,101.5 C -0.5,96.8333 -0.5,92.1667 -0.5,87.5C 0.847153,91.3519 2.68049,95.0186 5,98.5C 9.66667,103.167 14.3333,107.833 19,112.5C 19.3333,112.167 19.6667,111.833 20,111.5C 23.7038,114.477 27.3705,116.81 31,118.5C 31.3333,118.167 31.6667,117.833 32,117.5C 34.3333,118.5 36.6667,119.5 39,120.5C 39.3333,120.167 39.6667,119.833 40,119.5C 42,120.167 44,120.833 46,121.5C 48.6667,121.5 51.3333,121.5 54,121.5C 56,120.833 58,120.167 60,119.5C 62.1841,120.108 64.1841,119.441 66,117.5C 68.1841,118.108 70.1841,117.441 72,115.5C 72.3333,115.833 72.6667,116.167 73,116.5C 77.0156,114.54 80.6823,111.54 84,107.5C 84.3333,107.833 84.6667,108.167 85,108.5C 101.537,91.3282 107.037,71.8282 101.5,50C 98.7695,46.1537 96.6028,41.9871 95,37.5C 87.9939,27.8952 78.6606,20.5618 67,15.5C 65.6667,15.5 64.3333,15.5 63,15.5C 62.3333,14.8333 61.6667,14.1667 61,13.5C 53.5085,12.4813 46.1752,12.4813 39,13.5C 20.7133,17.92 7.54667,28.92 -0.5,46.5C -0.5,41.8333 -0.5,37.1667 -0.5,32.5C 2.69805,27.7899 6.53138,23.4566 11,19.5C 11.3333,19.8333 11.6667,20.1667 12,20.5C 15.2595,17.0323 18.9262,14.0323 23,11.5C 23.3333,11.8333 23.6667,12.1667 24,12.5C 38.5511,4.93949 53.8844,4.27283 70,10.5C 70.3333,10.1667 70.6667,9.83333 71,9.5C 83.5785,15.3282 94.2452,24.6616 103,37.5C 105.218,42.2021 107.051,46.7021 108.5,51C 108.167,51.3333 107.833,51.6667 107.5,52C 109.125,52.8525 109.458,53.8525 108.5,55C 109.167,57 109.833,59 110.5,61C 110.5,65 110.5,69 110.5,73C 108.654,79.1878 106.821,85.6878 105,92.5C 95.4441,109.476 82.1108,120.809 65,126.5C 61.89,125.691 58.5566,126.357 55,128.5C 52.0764,127.99 49.4097,127.99 47,128.5C 43.2401,127.867 39.5734,126.867 36,125.5C 35.6667,125.833 35.3333,126.167 35,126.5C 31.1305,125.213 27.4638,123.547 24,121.5C 23.6667,121.833 23.3333,122.167 23,122.5C 19.071,120.007 14.9043,117.174 10.5,114C 6.22352,110.233 2.55685,106.066 -0.5,101.5 Z"/></g>
<g><path style="opacity:1" fill="#043079" d="M 499.5,31.5 C 499.5,36.1667 499.5,40.8333 499.5,45.5C 496.877,40.7028 493.877,36.0362 490.5,31.5C 484.125,24.725 476.291,19.3916 467,15.5C 465.667,15.5 464.333,15.5 463,15.5C 461.445,13.8542 459.779,13.5209 458,14.5C 453.853,13.4361 449.853,12.7694 446,12.5C 419.144,16.6747 402.31,32.1747 395.5,59C 396.097,64.5618 396.097,69.8951 395.5,75C 398.835,89.8006 406.668,102.301 419,112.5C 419.333,112.167 419.667,111.833 420,111.5C 423.704,114.477 427.37,116.81 431,118.5C 431.333,118.167 431.667,117.833 432,117.5C 434.333,118.5 436.667,119.5 439,120.5C 439.333,120.167 439.667,119.833 440,119.5C 442,120.167 444,120.833 446,121.5C 448.667,121.5 451.333,121.5 454,121.5C 456,120.833 458,120.167 460,119.5C 462.184,120.108 464.184,119.441 466,117.5C 468.184,118.108 470.184,117.441 472,115.5C 472.333,115.833 472.667,116.167 473,116.5C 477.016,114.54 480.682,111.54 484,107.5C 484.333,107.833 484.667,108.167 485,108.5C 490.521,102.174 495.354,95.5077 499.5,88.5C 499.5,93.1667 499.5,97.8333 499.5,102.5C 494.173,107.994 488.673,113.327 483,118.5C 482.667,118.167 482.333,117.833 482,117.5C 478.333,119.833 474.667,122.167 471,124.5C 468.945,124.152 466.945,124.819 465,126.5C 461.89,125.691 458.557,126.357 455,128.5C 452.076,127.99 449.41,127.99 447,128.5C 443.24,127.867 439.573,126.867 436,125.5C 435.667,125.833 435.333,126.167 435,126.5C 412.996,119.829 398.163,105.663 390.5,84C 390.5,82 390.5,80 390.5,78C 385.501,56.9827 392.334,37.4827 411,19.5C 411.333,19.8333 411.667,20.1667 412,20.5C 415.26,17.0323 418.926,14.0323 423,11.5C 423.333,11.8333 423.667,12.1667 424,12.5C 438.551,4.93949 453.884,4.27283 470,10.5C 470.333,10.1667 470.667,9.83333 471,9.5C 474.879,12.1542 478.546,14.4875 482,16.5C 482.333,16.1667 482.667,15.8333 483,15.5C 488.342,21.0089 493.842,26.3422 499.5,31.5 Z"/></g>
<g><path style="opacity:1" fill="#033380" d="M -0.5,87.5 C -0.5,73.8333 -0.5,60.1667 -0.5,46.5C 7.54667,28.92 20.7133,17.92 39,13.5C 46.1752,12.4813 53.5085,12.4813 61,13.5C 61.6667,14.1667 62.3333,14.8333 63,15.5C 64.3333,15.5 65.6667,15.5 67,15.5C 78.6606,20.5618 87.9939,27.8952 95,37.5C 96.6028,41.9871 98.7695,46.1537 101.5,50C 107.037,71.8282 101.537,91.3282 85,108.5C 84.6667,108.167 84.3333,107.833 84,107.5C 80.6823,111.54 77.0156,114.54 73,116.5C 72.6667,116.167 72.3333,115.833 72,115.5C 70.1841,117.441 68.1841,118.108 66,117.5C 64.1841,119.441 62.1841,120.108 60,119.5C 58,120.167 56,120.833 54,121.5C 51.3333,121.5 48.6667,121.5 46,121.5C 44,120.833 42,120.167 40,119.5C 39.6667,119.833 39.3333,120.167 39,120.5C 36.6667,119.5 34.3333,118.5 32,117.5C 31.6667,117.833 31.3333,118.167 31,118.5C 27.3705,116.81 23.7038,114.477 20,111.5C 19.6667,111.833 19.3333,112.167 19,112.5C 14.3333,107.833 9.66667,103.167 5,98.5C 2.68049,95.0186 0.847153,91.3519 -0.5,87.5 Z"/></g>
<g><path style="opacity:1" fill="#033380" d="M 499.5,45.5 C 499.5,59.8333 499.5,74.1667 499.5,88.5C 495.354,95.5077 490.521,102.174 485,108.5C 484.667,108.167 484.333,107.833 484,107.5C 480.682,111.54 477.016,114.54 473,116.5C 472.667,116.167 472.333,115.833 472,115.5C 470.184,117.441 468.184,118.108 466,117.5C 464.184,119.441 462.184,120.108 460,119.5C 458,120.167 456,120.833 454,121.5C 451.333,121.5 448.667,121.5 446,121.5C 444,120.833 442,120.167 440,119.5C 439.667,119.833 439.333,120.167 439,120.5C 436.667,119.5 434.333,118.5 432,117.5C 431.667,117.833 431.333,118.167 431,118.5C 427.37,116.81 423.704,114.477 420,111.5C 419.667,111.833 419.333,112.167 419,112.5C 406.668,102.301 398.835,89.8006 395.5,75C 396.097,69.8951 396.097,64.5618 395.5,59C 402.31,32.1747 419.144,16.6747 446,12.5C 449.853,12.7694 453.853,13.4361 458,14.5C 459.779,13.5209 461.445,13.8542 463,15.5C 464.333,15.5 465.667,15.5 467,15.5C 476.291,19.3916 484.125,24.725 490.5,31.5C 493.877,36.0362 496.877,40.7028 499.5,45.5 Z"/></g>
<g><path style="opacity:1" fill="#033686" d="M 45.5,20.5 C 48.124,21.2459 50.9573,21.2459 54,20.5C 55.3333,21.1667 56.6667,21.8333 58,22.5C 59,22.1667 60,21.8333 61,21.5C 62.8159,23.4414 64.8159,24.1081 67,23.5C 81.3052,30.5188 90.8052,42.0188 95.5,58C 95.5,64 95.5,70 95.5,76C 93.8753,76.8525 93.5419,77.8525 94.5,79C 87.7845,98.3767 74.2845,109.877 54,113.5C 49.545,113.93 44.8783,113.263 40,111.5C 39.6667,111.833 39.3333,112.167 39,112.5C 35.1305,111.213 31.4638,109.547 28,107.5C 27.6667,107.833 27.3333,108.167 27,108.5C 24.7602,105.598 21.9269,103.431 18.5,102C 14.9284,98.1847 11.5951,94.1847 8.5,90C 8.83333,89.6667 9.16667,89.3333 9.5,89C 7.35364,86.2616 5.68697,83.2616 4.5,80C 3.90265,77.1027 3.90265,74.4361 4.5,72C 3.83333,70.6667 3.16667,69.3333 2.5,68C 2.42293,65.5105 3.08959,62.8438 4.5,60C 3.90341,58.3718 4.23674,56.7051 5.5,55C 5.16667,54.6667 4.83333,54.3333 4.5,54C 7.38368,47.9044 10.8837,41.7377 15,35.5C 15.3333,35.8333 15.6667,36.1667 16,36.5C 19.2205,32.0021 23.7205,28.1687 29.5,25C 35.0889,22.8371 40.4223,21.3371 45.5,20.5 Z"/></g>
<g><path style="opacity:1" fill="#033686" d="M 445.5,20.5 C 448.124,21.2459 450.957,21.2459 454,20.5C 455.333,21.1667 456.667,21.8333 458,22.5C 459,22.1667 460,21.8333 461,21.5C 462.816,23.4414 464.816,24.1081 467,23.5C 481.305,30.5188 490.805,42.0188 495.5,58C 495.5,64 495.5,70 495.5,76C 493.875,76.8525 493.542,77.8525 494.5,79C 487.785,98.3767 474.285,109.877 454,113.5C 449.545,113.93 444.878,113.263 440,111.5C 439.667,111.833 439.333,112.167 439,112.5C 435.13,111.213 431.464,109.547 428,107.5C 427.667,107.833 427.333,108.167 427,108.5C 424.76,105.598 421.927,103.431 418.5,102C 414.928,98.1847 411.595,94.1847 408.5,90C 408.833,89.6667 409.167,89.3333 409.5,89C 407.354,86.2616 405.687,83.2616 404.5,80C 403.903,77.1027 403.903,74.4361 404.5,72C 403.833,70.6667 403.167,69.3333 402.5,68C 402.423,65.5105 403.09,62.8438 404.5,60C 403.903,58.3718 404.237,56.7051 405.5,55C 405.167,54.6667 404.833,54.3333 404.5,54C 407.384,47.9044 410.884,41.7377 415,35.5C 415.333,35.8333 415.667,36.1667 416,36.5C 419.221,32.0021 423.721,28.1687 429.5,25C 435.089,22.8371 440.422,21.3371 445.5,20.5 Z"/></g>
<g><path style="opacity:1" fill="#023b90" d="M 42.5,27.5 C 47.3419,27.6054 52.1752,27.6054 57,27.5C 61.2784,28.9116 65.7784,30.745 70.5,33C 77.5418,38.2713 83.2084,45.2713 87.5,54C 87.5,56 87.5,58 87.5,60C 88.1667,60.6667 88.8333,61.3333 89.5,62C 89.5,64.6667 89.5,67.3333 89.5,70C 86.6046,88.2825 75.7713,100.449 57,106.5C 51.3998,106.233 46.0665,106.233 41,106.5C 26.0677,102.241 15.9011,92.0742 10.5,76C 9.16667,70 9.16667,64 10.5,58C 13.1699,49.8749 17.8366,42.5416 24.5,36C 28.2316,33.4768 31.7316,31.3101 35,29.5C 35.3333,29.8333 35.6667,30.1667 36,30.5C 38.294,29.5783 40.4606,28.5783 42.5,27.5 Z"/></g>
<g><path style="opacity:1" fill="#023b90" d="M 442.5,27.5 C 447.342,27.6054 452.175,27.6054 457,27.5C 461.278,28.9116 465.778,30.745 470.5,33C 477.542,38.2713 483.208,45.2713 487.5,54C 487.5,56 487.5,58 487.5,60C 488.167,60.6667 488.833,61.3333 489.5,62C 489.5,64.6667 489.5,67.3333 489.5,70C 486.605,88.2825 475.771,100.449 457,106.5C 451.4,106.233 446.066,106.233 441,106.5C 426.068,102.241 415.901,92.0742 410.5,76C 409.167,70 409.167,64 410.5,58C 413.17,49.8749 417.837,42.5416 424.5,36C 428.232,33.4768 431.732,31.3101 435,29.5C 435.333,29.8333 435.667,30.1667 436,30.5C 438.294,29.5783 440.461,28.5783 442.5,27.5 Z"/></g>
<g><path style="opacity:1" fill="#01419c" d="M 45.5,40.5 C 47.7184,41.5978 49.8851,41.5978 52,40.5C 69.7674,44.9196 77.6007,56.0863 75.5,74C 72.1645,82.0073 66.6645,88.174 59,92.5C 57.2215,91.5209 55.5548,91.8542 54,93.5C 51.7237,93.3157 49.3904,93.3157 47,93.5C 38.6744,92.2538 32.0077,87.9204 27,80.5C 25.2524,76.4436 23.7524,72.2769 22.5,68C 21.9394,66.4345 22.6061,65.1011 24.5,64C 24.1667,63.6667 23.8333,63.3333 23.5,63C 25.5142,54.4978 29.8475,48.1644 36.5,44C 39.5061,42.1573 42.5061,40.9907 45.5,40.5 Z"/></g>
<g><path style="opacity:1" fill="#01419c" d="M 445.5,40.5 C 447.718,41.5978 449.885,41.5978 452,40.5C 469.767,44.9196 477.601,56.0863 475.5,74C 472.164,82.0073 466.664,88.174 459,92.5C 457.221,91.5209 455.555,91.8542 454,93.5C 451.724,93.3157 449.39,93.3157 447,93.5C 438.674,92.2538 432.008,87.9204 427,80.5C 425.252,76.4436 423.752,72.2769 422.5,68C 421.939,66.4345 422.606,65.1011 424.5,64C 424.167,63.6667 423.833,63.3333 423.5,63C 425.514,54.4978 429.847,48.1644 436.5,44C 439.506,42.1573 442.506,40.9907 445.5,40.5 Z"/></g>
<g><path style="opacity:1" fill="#08092c" d="M 154.5,42.5 C 217.833,42.5 281.167,42.5 344.5,42.5C 344.5,61.8333 344.5,81.1667 344.5,100.5C 344.333,119.17 344.5,137.836 345,156.5C 346.833,158.333 348.667,160.167 350.5,162C 365.163,162.5 379.83,162.667 394.5,162.5C 399.833,162.5 405.167,162.5 410.5,162.5C 410.5,221.5 410.5,280.5 410.5,339.5C 397.167,339.5 383.833,339.5 370.5,339.5C 367.545,337.06 364.211,335.227 360.5,334C 354.843,333.501 349.176,333.334 343.5,333.5C 343.5,344.833 343.5,356.167 343.5,367.5C 341.886,365.925 339.886,365.259 337.5,365.5C 337.5,364.167 337.5,362.833 337.5,361.5C 333.5,361.5 329.5,361.5 325.5,361.5C 325.5,358.833 325.5,356.167 325.5,353.5C 329.167,353.5 332.833,353.5 336.5,353.5C 336.795,351.265 336.461,349.265 335.5,347.5C 332.375,346.521 329.042,346.187 325.5,346.5C 325.5,344.167 325.5,341.833 325.5,339.5C 329.5,339.5 333.5,339.5 337.5,339.5C 337.5,337.5 337.5,335.5 337.5,333.5C 330.5,333.5 323.5,333.5 316.5,333.5C 316.5,344.167 316.5,354.833 316.5,365.5C 315.222,365.782 314.222,366.449 313.5,367.5C 313.5,365.5 313.5,363.5 313.5,361.5C 310.167,361.5 306.833,361.5 303.5,361.5C 303.5,352.167 303.5,342.833 303.5,333.5C 300.833,333.5 298.167,333.5 295.5,333.5C 295.5,344.833 295.5,356.167 295.5,367.5C 291.146,365.652 286.48,364.985 281.5,365.5C 281.5,363.833 281.5,362.167 281.5,360.5C 279.533,360.739 277.699,360.406 276,359.5C 275.501,355.514 275.334,351.514 275.5,347.5C 277.5,347.5 279.5,347.5 281.5,347.5C 281.5,345.167 281.5,342.833 281.5,340.5C 279.5,340.5 277.5,340.5 275.5,340.5C 275.5,338.167 275.5,335.833 275.5,333.5C 272.833,333.5 270.167,333.5 267.5,333.5C 267.5,335.833 267.5,338.167 267.5,340.5C 266.5,340.5 265.5,340.5 264.5,340.5C 264.5,342.833 264.5,345.167 264.5,347.5C 265.5,347.5 266.5,347.5 267.5,347.5C 267.035,353.689 267.702,359.689 269.5,365.5C 266.167,365.5 262.833,365.5 259.5,365.5C 260.948,363.445 262.281,361.278 263.5,359C 258.944,358.154 254.611,358.654 250.5,360.5C 249.228,360.43 248.062,360.097 247,359.5C 244.53,355.17 245.03,351.337 248.5,348C 252.075,347.899 255.575,348.399 259,349.5C 260.5,349.167 262,348.833 263.5,348.5C 258.814,340.581 252.147,338.415 243.5,342C 237.826,346.485 235.993,352.319 238,359.5C 238.926,361.692 240.093,363.692 241.5,365.5C 237.833,365.5 234.167,365.5 230.5,365.5C 232.312,363.539 233.312,361.206 233.5,358.5C 229.364,358.308 225.364,358.974 221.5,360.5C 219.645,360.66 218.312,359.993 217.5,358.5C 223.167,357.833 228.833,357.167 234.5,356.5C 236.095,348.879 233.095,343.712 225.5,341C 211.053,339.786 205.553,346.286 209,360.5C 209.997,362.323 211.164,363.99 212.5,365.5C 210.167,365.5 207.833,365.5 205.5,365.5C 205.5,363.833 205.5,362.167 205.5,360.5C 203.533,360.739 201.699,360.406 200,359.5C 199.501,355.514 199.334,351.514 199.5,347.5C 201.5,347.5 203.5,347.5 205.5,347.5C 205.5,345.167 205.5,342.833 205.5,340.5C 203.5,340.5 201.5,340.5 199.5,340.5C 199.5,338.167 199.5,335.833 199.5,333.5C 196.833,333.5 194.167,333.5 191.5,333.5C 191.5,335.833 191.5,338.167 191.5,340.5C 190.5,340.5 189.5,340.5 188.5,340.5C 188.5,342.833 188.5,345.167 188.5,347.5C 189.5,347.5 190.5,347.5 191.5,347.5C 191.035,353.689 191.702,359.689 193.5,365.5C 189.5,365.5 185.5,365.5 181.5,365.5C 183.705,363.637 185.039,361.303 185.5,358.5C 181.092,358.116 176.925,358.783 173,360.5C 170.837,360.505 169.337,359.505 168.5,357.5C 174.463,356.504 180.463,356.171 186.5,356.5C 186.37,343.878 180.037,338.711 167.5,341C 158.012,348.067 157.012,356.234 164.5,365.5C 161.167,365.5 157.833,365.5 154.5,365.5C 154.5,364.167 154.5,362.833 154.5,361.5C 161.238,348.492 157.905,339.326 144.5,334C 138.843,333.501 133.176,333.334 127.5,333.5C 126.539,335.265 126.205,337.265 126.5,339.5C 113.5,339.5 100.5,339.5 87.5,339.5C 87.5,280.5 87.5,221.5 87.5,162.5C 93.5,162.5 99.5,162.5 105.5,162.5C 119.504,162.667 133.504,162.5 147.5,162C 149.667,159.833 151.833,157.667 154,155.5C 154.5,136.836 154.667,118.17 154.5,99.5C 154.5,80.5 154.5,61.5 154.5,42.5 Z"/></g>
<g><path style="opacity:1" fill="#081543" d="M 154.5,99.5 C 154.667,118.17 154.5,136.836 154,155.5C 151.833,157.667 149.667,159.833 147.5,162C 133.504,162.5 119.504,162.667 105.5,162.5C 106.793,160.704 108.293,159.037 110,157.5C 110.333,157.833 110.667,158.167 111,158.5C 131.828,142.932 146.328,123.265 154.5,99.5 Z"/></g>
<g><path style="opacity:1" fill="#081543" d="M 344.5,100.5 C 346.233,101.008 346.566,101.841 345.5,103C 347.5,107 349.5,111 351.5,115C 351.167,115.333 350.833,115.667 350.5,116C 356,124.167 361.5,132.333 367,140.5C 367.333,140.167 367.667,139.833 368,139.5C 368.333,140.5 368.667,141.5 369,142.5C 369.333,142.167 369.667,141.833 370,141.5C 371,143.167 372,144.833 373,146.5C 373.333,146.167 373.667,145.833 374,145.5C 378.683,150.804 384.35,155.804 391,160.5C 392.579,159.828 393.746,160.495 394.5,162.5C 379.83,162.667 365.163,162.5 350.5,162C 348.667,160.167 346.833,158.333 345,156.5C 344.5,137.836 344.333,119.17 344.5,100.5 Z"/></g>
<g><path style="opacity:1" fill="#23bddd" d="M 280.5,116.5 C 293.108,121.222 304.608,127.889 315,136.5C 315.749,137.635 315.583,138.635 314.5,139.5C 303.492,129.834 291.159,122.5 277.5,117.5C 278.791,117.737 279.791,117.404 280.5,116.5 Z"/></g>
<g><path style="opacity:1" fill="#26d7e1" d="M 280.5,116.5 C 279.791,117.404 278.791,117.737 277.5,117.5C 233.013,105.286 195.847,116.619 166,151.5C 156.244,164.345 149.744,178.679 146.5,194.5C 145.539,192.735 145.205,190.735 145.5,188.5C 156.145,149.688 180.812,124.521 219.5,113C 236.493,109.716 253.493,109.716 270.5,113C 273.899,114.077 277.233,115.244 280.5,116.5 Z"/></g>
<g><path style="opacity:1" fill="#22c0db" d="M 256.5,124.5 C 272.204,126.283 286.204,131.949 298.5,141.5C 298.5,142.167 298.5,142.833 298.5,143.5C 280.512,131.001 260.512,125.334 238.5,126.5C 244.5,125.833 250.5,125.167 256.5,124.5 Z"/></g>
<g><path style="opacity:1" fill="#26d6e0" d="M 256.5,124.5 C 250.5,125.167 244.5,125.833 238.5,126.5C 226.572,127.482 215.238,130.649 204.5,136C 202.879,138.166 202.045,140.666 202,143.5C 197.491,148.778 193.158,148.778 189,143.5C 188.101,133.748 192.101,131.081 201,135.5C 218.243,125.543 236.743,121.876 256.5,124.5 Z"/></g>
<g><path style="opacity:1" fill="#091734" d="M 193.5,135.5 C 199.803,135.924 201.469,138.757 198.5,144C 190.208,144.89 188.542,142.057 193.5,135.5 Z"/></g>
<g><path style="opacity:1" fill="#21b7db" d="M 238.5,145.5 C 256.581,143.042 271.581,148.708 283.5,162.5C 283.5,163.167 283.5,163.833 283.5,164.5C 271.626,151.762 256.959,146.095 239.5,147.5C 242.977,146.677 246.644,146.177 250.5,146C 246.514,145.501 242.514,145.334 238.5,145.5 Z"/></g>
<g><path style="opacity:1" fill="#22cae3" d="M 238.5,145.5 C 242.514,145.334 246.514,145.501 250.5,146C 246.644,146.177 242.977,146.677 239.5,147.5C 217.506,151.758 203.673,164.758 198,186.5C 197.501,191.155 197.334,195.821 197.5,200.5C 197.768,202.099 197.434,203.432 196.5,204.5C 192.867,176.932 203.867,157.765 229.5,147C 232.478,146.304 235.478,145.804 238.5,145.5 Z"/></g>
<g><path style="opacity:1" fill="#070a2e" d="M 239.5,147.5 C 256.959,146.095 271.626,151.762 283.5,164.5C 286.17,169.175 288.837,173.841 291.5,178.5C 292.167,182.5 292.833,186.5 293.5,190.5C 293.876,197.322 293.043,203.988 291,210.5C 283.973,221.364 277.14,232.364 270.5,243.5C 253.82,243.833 237.153,243.499 220.5,242.5C 218.059,237.935 215.392,233.602 212.5,229.5C 205.101,221.033 200.101,211.367 197.5,200.5C 197.334,195.821 197.501,191.155 198,186.5C 203.673,164.758 217.506,151.758 239.5,147.5 Z"/></g>
<g><path style="opacity:1" fill="#1ea2de" d="M 298.5,141.5 C 305.098,145.096 310.431,150.096 314.5,156.5C 313.833,156.5 313.5,156.833 313.5,157.5C 308.474,152.805 303.474,148.139 298.5,143.5C 298.5,142.833 298.5,142.167 298.5,141.5 Z"/></g>
<g><path style="opacity:1" fill="#061e56" d="M 112.5,-0.5 C 116.833,-0.5 121.167,-0.5 125.5,-0.5C 129.783,5.62295 134.283,11.623 139,17.5C 141.225,23.7929 144.058,29.9596 147.5,36C 147.167,36.3333 146.833,36.6667 146.5,37C 148.461,43.5624 150.128,49.8957 151.5,56C 151.375,64.2741 151.375,72.2741 151.5,80C 150.833,80.6667 150.167,81.3333 149.5,82C 149.5,84.6667 149.5,87.3333 149.5,90C 148.167,92.6667 146.833,95.3333 145.5,98C 145.833,98.3333 146.167,98.6667 146.5,99C 145.167,101.667 143.833,104.333 142.5,107C 142.833,107.333 143.167,107.667 143.5,108C 141.812,110.726 140.312,113.559 139,116.5C 136.656,119.211 134.489,122.044 132.5,125C 132.833,125.333 133.167,125.667 133.5,126C 125.833,134.641 117.667,142.808 109,150.5C 108.667,150.167 108.333,149.833 108,149.5C 106.333,151.167 104.667,152.833 103,154.5C 102.667,154.167 102.333,153.833 102,153.5C 97.2557,156.785 92.4223,159.785 87.5,162.5C 58.1667,162.5 28.8333,162.5 -0.5,162.5C -0.5,156.167 -0.5,149.833 -0.5,143.5C 1.10422,144.287 1.77089,145.62 1.5,147.5C 5.75431,149.501 10.0876,151.168 14.5,152.5C 15.086,152.291 15.586,151.957 16,151.5C 17.6667,152.833 19.3333,154.167 21,155.5C 21.414,155.043 21.914,154.709 22.5,154.5C 25.3878,156.517 28.5545,157.851 32,158.5C 32.3333,158.167 32.6667,157.833 33,157.5C 34.3129,158.573 35.8129,159.24 37.5,159.5C 44.8149,158.871 51.9816,158.871 59,159.5C 60,158.833 61,158.167 62,157.5C 64.0258,158.019 66.0258,158.353 68,158.5C 71.2764,157.019 74.6097,155.352 78,153.5C 79.6667,153.833 81.3333,154.167 83,154.5C 87.6645,149.89 92.9979,147.223 99,146.5C 100.188,145.437 100.688,144.103 100.5,142.5C 101.873,142.657 103.207,142.49 104.5,142C 110.667,135.833 116.833,129.667 123,123.5C 125.577,118.018 128.91,113.018 133,108.5C 133.52,104.228 135.02,100.395 137.5,97C 136.633,94.6845 137.299,92.6845 139.5,91C 139.043,90.586 138.709,90.086 138.5,89.5C 139.985,84.7003 141.318,79.867 142.5,75C 141.763,69.8955 141.763,64.5622 142.5,59C 140.479,56.9571 140.146,54.9571 141.5,53C 139.678,49.7414 139.011,46.4081 139.5,43C 137.665,42.0723 137.332,40.9056 138.5,39.5C 135.548,34.0163 133.048,28.3496 131,22.5C 128.509,19.0097 125.675,15.843 122.5,13C 123.451,12.2825 123.617,11.4491 123,10.5C 119.296,6.96427 115.796,3.2976 112.5,-0.5 Z"/></g>
<g><path style="opacity:1" fill="#061e56" d="M 372.5,-0.5 C 376.5,-0.5 380.5,-0.5 384.5,-0.5C 382.158,2.6839 379.992,6.01723 378,9.5C 376.649,11.019 375.149,12.3523 373.5,13.5C 371.045,17.3562 368.711,21.3562 366.5,25.5C 366.709,26.086 367.043,26.586 367.5,27C 366.284,28.594 364.951,30.094 363.5,31.5C 363.709,32.086 364.043,32.586 364.5,33C 363.605,37.9224 361.605,42.5891 358.5,47C 358.616,48.2682 358.949,49.6015 359.5,51C 357.986,52.439 357.653,53.939 358.5,55.5C 357.885,58.0393 357.218,60.5393 356.5,63C 359.167,63.6667 359.167,64.3333 356.5,65C 359.167,65.6667 359.167,66.3333 356.5,67C 359.167,67.6667 359.167,68.3333 356.5,69C 357.424,69.85 357.424,70.85 356.5,72C 357.044,74.3997 357.711,76.733 358.5,79C 357.786,80.3431 358.12,81.6764 359.5,83C 358.499,86.5246 359.166,90.1913 361.5,94C 361.043,94.414 360.709,94.914 360.5,95.5C 363.763,100.993 366.596,106.326 369,111.5C 369.49,112.793 369.657,114.127 369.5,115.5C 372.845,115.326 374.012,116.659 373,119.5C 376.147,122.468 378.814,125.802 381,129.5C 387.157,135.343 392.99,140.843 398.5,146C 400.788,146.822 403.122,147.489 405.5,148C 406.22,150.122 407.387,150.622 409,149.5C 410.434,151.136 412.267,152.136 414.5,152.5C 415.086,152.291 415.586,151.957 416,151.5C 417.667,152.833 419.333,154.167 421,155.5C 421.414,155.043 421.914,154.709 422.5,154.5C 425.388,156.517 428.554,157.851 432,158.5C 444.254,158.669 456.254,158.669 468,158.5C 471.276,157.019 474.61,155.352 478,153.5C 479.667,153.833 481.333,154.167 483,154.5C 488.037,150.371 493.537,147.037 499.5,144.5C 499.5,150.5 499.5,156.5 499.5,162.5C 470.5,162.5 441.5,162.5 412.5,162.5C 410.909,161.781 409.409,160.781 408,159.5C 406.434,160.061 405.101,159.394 404,157.5C 402.434,158.061 401.101,157.394 400,155.5C 395.526,154.216 391.526,151.549 388,147.5C 387.667,147.833 387.333,148.167 387,148.5C 355.686,120.042 343.186,87.5423 349.5,51C 349.167,50.6667 348.833,50.3333 348.5,50C 349.763,48.2949 350.097,46.6282 349.5,45C 350.763,43.2949 351.097,41.6282 350.5,40C 351.297,35.7374 353.297,31.7374 356.5,28C 356.5,26.6667 356.5,25.3333 356.5,24C 361.558,15.6741 366.891,7.50745 372.5,-0.5 Z"/></g>
<g><path style="opacity:1" fill="#198edc" d="M 337.5,166.5 C 337.672,167.492 337.338,168.158 336.5,168.5C 335.31,166.645 333.977,164.812 332.5,163C 324.948,162.782 321.781,158.949 323,151.5C 326.731,147.95 330.731,147.617 335,150.5C 337.136,153.993 336.969,157.326 334.5,160.5C 335.559,162.534 336.559,164.534 337.5,166.5 Z"/></g>
<g><path style="opacity:1" fill="#081135" d="M 327.5,150.5 C 333.803,150.924 335.469,153.757 332.5,159C 325.421,159.527 323.754,156.694 327.5,150.5 Z"/></g>
<g><path style="opacity:1" fill="#0c0c38" d="M -0.5,162.5 C 28.8333,162.5 58.1667,162.5 87.5,162.5C 87.5,221.5 87.5,280.5 87.5,339.5C 83.5,339.5 79.5,339.5 75.5,339.5C 50.1667,339.5 24.8333,339.5 -0.5,339.5C -0.5,280.5 -0.5,221.5 -0.5,162.5 Z"/></g>
<g><path style="opacity:1" fill="#0c0b37" d="M 410.5,162.5 C 411.167,162.5 411.833,162.5 412.5,162.5C 441.5,162.5 470.5,162.5 499.5,162.5C 499.5,221.5 499.5,280.5 499.5,339.5C 474.5,339.5 449.5,339.5 424.5,339.5C 419.833,339.5 415.167,339.5 410.5,339.5C 410.5,280.5 410.5,221.5 410.5,162.5 Z"/></g>
<g><path style="opacity:1" fill="#1a8ddc" d="M 314.5,156.5 C 318.915,161.26 322.581,166.594 325.5,172.5C 324.89,173.391 324.557,174.391 324.5,175.5C 320.873,169.525 317.206,163.525 313.5,157.5C 313.5,156.833 313.833,156.5 314.5,156.5 Z"/></g>
<g><path style="opacity:1" fill="#26d4e1" d="M 160.5,194.5 C 159.549,193.081 159.216,191.415 159.5,189.5C 162.391,176.885 168.057,165.718 176.5,156C 177.635,155.251 178.635,155.417 179.5,156.5C 169.982,167.536 163.649,180.203 160.5,194.5 Z"/></g>
<g><path style="opacity:1" fill="#1a99da" d="M 283.5,162.5 C 287.336,165.678 290.002,169.678 291.5,174.5C 291.5,175.833 291.5,177.167 291.5,178.5C 288.837,173.841 286.17,169.175 283.5,164.5C 283.5,163.833 283.5,163.167 283.5,162.5 Z"/></g>
<g><path style="opacity:1" fill="#1684d9" d="M 291.5,174.5 C 295.791,182.638 297.124,191.305 295.5,200.5C 294.833,197.167 294.167,193.833 293.5,190.5C 292.833,186.5 292.167,182.5 291.5,178.5C 291.5,177.167 291.5,175.833 291.5,174.5 Z"/></g>
<g><path style="opacity:1" fill="#07082b" d="M 259.5,181.5 C 263.605,181.234 267.605,181.734 271.5,183C 274.079,184.076 275.746,185.909 276.5,188.5C 276.837,192.308 276.337,195.974 275,199.5C 273.157,201.171 270.991,202.171 268.5,202.5C 265.5,202.5 262.5,202.5 259.5,202.5C 259.5,195.5 259.5,188.5 259.5,181.5 Z"/></g>
<g><path style="opacity:1" fill="#072a5d" d="M 259.5,181.5 C 259.5,188.5 259.5,195.5 259.5,202.5C 262.5,202.5 265.5,202.5 268.5,202.5C 265.375,203.479 262.042,203.813 258.5,203.5C 258.5,199.167 258.5,194.833 258.5,190.5C 258.19,187.287 258.523,184.287 259.5,181.5 Z"/></g>
<g><path style="opacity:1" fill="#1a9add" d="M 278.5,186.5 C 278.657,187.873 278.49,189.207 278,190.5C 277.722,189.584 277.222,188.918 276.5,188.5C 275.746,185.909 274.079,184.076 271.5,183C 267.605,181.734 263.605,181.234 259.5,181.5C 258.523,184.287 258.19,187.287 258.5,190.5C 257.833,192.5 257.167,194.5 256.5,196.5C 256.5,190.833 256.5,185.167 256.5,179.5C 263.034,177.745 269.367,178.578 275.5,182C 276.883,183.271 277.883,184.771 278.5,186.5 Z"/></g>
<g><path style="opacity:1" fill="#1aa2e1" d="M 253.5,203.5 C 247.588,205.456 241.255,206.123 234.5,205.5C 234.5,196.5 234.5,187.5 234.5,178.5C 240.758,178.19 246.924,178.524 253,179.5C 253.167,179.833 253.333,180.167 253.5,180.5C 247.872,181.495 242.206,181.829 236.5,181.5C 236.5,184.833 236.5,188.167 236.5,191.5C 251.167,192.167 251.167,192.833 236.5,193.5C 236.5,196.833 236.5,200.167 236.5,203.5C 242.167,203.5 247.833,203.5 253.5,203.5 Z"/></g>
<g><path style="opacity:1" fill="#146fdc" d="M 325.5,172.5 C 330.799,182.004 333.799,192.337 334.5,203.5C 334.666,209.509 334.499,215.509 334,221.5C 333.826,216.316 333.326,211.316 332.5,206.5C 331.859,195.622 329.192,185.288 324.5,175.5C 324.557,174.391 324.89,173.391 325.5,172.5 Z"/></g>
<g><path style="opacity:1" fill="#1685d8" d="M 278.5,186.5 C 281.709,196.903 278.043,203.237 267.5,205.5C 263.833,205.5 260.167,205.5 256.5,205.5C 256.5,202.5 256.5,199.5 256.5,196.5C 257.167,194.5 257.833,192.5 258.5,190.5C 258.5,194.833 258.5,199.167 258.5,203.5C 262.042,203.813 265.375,203.479 268.5,202.5C 270.991,202.171 273.157,201.171 275,199.5C 276.337,195.974 276.837,192.308 276.5,188.5C 277.222,188.918 277.722,189.584 278,190.5C 278.49,189.207 278.657,187.873 278.5,186.5 Z"/></g>
<g><path style="opacity:1" fill="#1cb2f0" d="M 214.5,179.5 C 216.467,187.097 217.134,195.097 216.5,203.5C 221.544,203.173 226.544,203.506 231.5,204.5C 225.872,205.495 220.206,205.829 214.5,205.5C 214.5,196.833 214.5,188.167 214.5,179.5 Z"/></g>
<g><path style="opacity:1" fill="#20bbdc" d="M 145.5,188.5 C 145.205,190.735 145.539,192.735 146.5,194.5C 145.608,204.134 145.275,213.801 145.5,223.5C 145.66,225.199 145.494,226.866 145,228.5C 144.722,227.584 144.222,226.918 143.5,226.5C 141.693,213.558 142.36,200.892 145.5,188.5 Z"/></g>
<g><path style="opacity:1" fill="#0b2858" d="M 256.5,179.5 C 256.5,185.167 256.5,190.833 256.5,196.5C 256.5,199.5 256.5,202.5 256.5,205.5C 260.167,205.5 263.833,205.5 267.5,205.5C 263.504,206.07 259.504,207.07 255.5,208.5C 254.304,208.154 254.304,207.654 255.5,207C 248.321,206.829 241.321,206.329 234.5,205.5C 241.255,206.123 247.588,205.456 253.5,203.5C 255.154,195.719 256.154,187.719 256.5,179.5 Z"/></g>
<g><path style="opacity:1" fill="#21c6e9" d="M 159.5,189.5 C 159.216,191.415 159.549,193.081 160.5,194.5C 158.88,202.741 158.214,211.075 158.5,219.5C 157.833,220.167 157.167,220.833 156.5,221.5C 156.334,214.159 156.5,206.826 157,199.5C 157.311,195.91 158.144,192.577 159.5,189.5 Z"/></g>
<g><path style="opacity:1" fill="#166bd5" d="M 293.5,190.5 C 294.167,193.833 294.833,197.167 295.5,200.5C 294.921,206.072 293.421,211.406 291,216.5C 284.181,225.317 278.181,234.65 273,244.5C 273.543,251.464 273.376,258.464 272.5,265.5C 271.833,258.5 271.167,251.5 270.5,244.5C 270.5,244.167 270.5,243.833 270.5,243.5C 277.14,232.364 283.973,221.364 291,210.5C 293.043,203.988 293.876,197.322 293.5,190.5 Z"/></g>
<g><path style="opacity:1" fill="#1b9ddf" d="M 197.5,200.5 C 200.101,211.367 205.101,221.033 212.5,229.5C 212.737,230.791 212.404,231.791 211.5,232.5C 203.946,224.593 198.946,215.259 196.5,204.5C 197.434,203.432 197.768,202.099 197.5,200.5 Z"/></g>
<g><path style="opacity:1" fill="#1ea5db" d="M 158.5,219.5 C 159.974,227.079 161.641,234.746 163.5,242.5C 162.833,242.833 162.167,243.167 161.5,243.5C 159.325,236.29 157.658,228.957 156.5,221.5C 157.167,220.833 157.833,220.167 158.5,219.5 Z"/></g>
<g><path style="opacity:1" fill="#1769db" d="M 337.5,166.5 C 348.151,187.66 351.151,209.994 346.5,233.5C 345.527,231.052 345.194,228.385 345.5,225.5C 347.802,205.646 344.802,186.646 336.5,168.5C 337.338,168.158 337.672,167.492 337.5,166.5 Z"/></g>
<g><path style="opacity:1" fill="#1b56c4" d="M 334.5,203.5 C 337.456,228.445 330.79,250.612 314.5,270C 313.668,270.688 313.002,270.521 312.5,269.5C 327.02,251.114 333.687,230.114 332.5,206.5C 333.326,211.316 333.826,216.316 334,221.5C 334.499,215.509 334.666,209.509 334.5,203.5 Z"/></g>
<g><path style="opacity:1" fill="#1c9cdd" d="M 145.5,223.5 C 147.011,236.857 151.011,249.524 157.5,261.5C 156.508,261.328 155.842,261.662 155.5,262.5C 149.363,251.316 145.363,239.316 143.5,226.5C 144.222,226.918 144.722,227.584 145,228.5C 145.494,226.866 145.66,225.199 145.5,223.5 Z"/></g>
<g><path style="opacity:1" fill="#1464cc" d="M 212.5,229.5 C 215.392,233.602 218.059,237.935 220.5,242.5C 237.153,243.499 253.82,243.833 270.5,243.5C 270.5,243.833 270.5,244.167 270.5,244.5C 255.163,244.333 239.83,244.5 224.5,245C 239.672,245.169 254.672,245.669 269.5,246.5C 270.477,249.287 270.81,252.287 270.5,255.5C 253.991,255.17 237.658,255.504 221.5,256.5C 221.5,259.167 221.5,261.833 221.5,264.5C 222.209,265.404 223.209,265.737 224.5,265.5C 239.5,266.167 254.5,266.833 269.5,267.5C 253.5,267.5 237.5,267.5 221.5,267.5C 221.263,268.791 221.596,269.791 222.5,270.5C 223.473,273.135 225.14,275.135 227.5,276.5C 226.494,276.938 226.494,277.604 227.5,278.5C 222.388,276.049 219.055,272.049 217.5,266.5C 218.633,258.883 218.8,251.216 218,243.5C 216.326,239.476 214.159,235.809 211.5,232.5C 212.404,231.791 212.737,230.791 212.5,229.5 Z"/></g>
<g><path style="opacity:1" fill="#07072b" d="M 269.5,247.5 C 269.5,249.167 269.5,250.833 269.5,252.5C 253.833,252.5 238.167,252.5 222.5,252.5C 222.5,250.833 222.5,249.167 222.5,247.5C 238.167,247.5 253.833,247.5 269.5,247.5 Z"/></g>
<g><path style="opacity:1" fill="#040e40" d="M 269.5,246.5 C 269.5,246.833 269.5,247.167 269.5,247.5C 253.833,247.5 238.167,247.5 222.5,247.5C 222.5,249.167 222.5,250.833 222.5,252.5C 238.167,252.5 253.833,252.5 269.5,252.5C 253.675,253.496 237.675,253.83 221.5,253.5C 221.5,251.167 221.5,248.833 221.5,246.5C 237.5,246.5 253.5,246.5 269.5,246.5 Z"/></g>
<g><path style="opacity:1" fill="#1a8bdc" d="M 163.5,242.5 C 166.814,249.128 170.147,255.795 173.5,262.5C 173.672,263.492 173.338,264.158 172.5,264.5C 168.054,257.942 164.387,250.942 161.5,243.5C 162.167,243.167 162.833,242.833 163.5,242.5 Z"/></g>
<g><path style="opacity:1" fill="#07072c" d="M 221.5,256.5 C 237.5,256.5 253.5,256.5 269.5,256.5C 269.5,259.167 269.5,261.833 269.5,264.5C 253.5,264.5 237.5,264.5 221.5,264.5C 221.5,261.833 221.5,259.167 221.5,256.5 Z"/></g>
<g><path style="opacity:1" fill="#0e2d78" d="M 221.5,256.5 C 237.658,255.504 253.991,255.17 270.5,255.5C 270.5,258.833 270.5,262.167 270.5,265.5C 255.167,265.5 239.833,265.5 224.5,265.5C 223.209,265.737 222.209,265.404 221.5,264.5C 237.5,264.5 253.5,264.5 269.5,264.5C 269.5,261.833 269.5,259.167 269.5,256.5C 253.5,256.5 237.5,256.5 221.5,256.5 Z"/></g>
<g><path style="opacity:1" fill="#176deb" d="M 270.5,244.5 C 271.167,251.5 271.833,258.5 272.5,265.5C 273.625,266.348 273.625,267.348 272.5,268.5C 271.883,268.611 271.383,268.944 271,269.5C 270.722,268.584 270.222,267.918 269.5,267.5C 254.5,266.833 239.5,266.167 224.5,265.5C 239.833,265.5 255.167,265.5 270.5,265.5C 270.5,262.167 270.5,258.833 270.5,255.5C 270.81,252.287 270.477,249.287 269.5,246.5C 254.672,245.669 239.672,245.169 224.5,245C 239.83,244.5 255.163,244.333 270.5,244.5 Z"/></g>
<g><path style="opacity:1" fill="#091c63" d="M 269.5,267.5 C 269.88,269.698 269.213,271.365 267.5,272.5C 267.539,271.417 267.873,270.417 268.5,269.5C 260.833,269.167 253.167,268.833 245.5,268.5C 237.47,268.502 229.803,269.169 222.5,270.5C 221.596,269.791 221.263,268.791 221.5,267.5C 237.5,267.5 253.5,267.5 269.5,267.5 Z"/></g>
<g><path style="opacity:1" fill="#167ed8" d="M 157.5,261.5 C 157.611,262.117 157.944,262.617 158.5,263C 165.76,262.342 168.927,265.508 168,272.5C 163.333,279.167 158.667,279.167 154,272.5C 153.674,269.015 154.174,265.682 155.5,262.5C 155.842,261.662 156.508,261.328 157.5,261.5 Z"/></g>
<g><path style="opacity:1" fill="#070e35" d="M 158.5,265.5 C 165.486,265.331 167.153,268.164 163.5,274C 156.416,274.475 154.749,271.642 158.5,265.5 Z"/></g>
<g><path style="opacity:1" fill="#07082e" d="M 267.5,272.5 C 266.547,274.61 264.881,275.777 262.5,276C 250.838,276.5 239.171,276.667 227.5,276.5C 225.14,275.135 223.473,273.135 222.5,270.5C 229.803,269.169 237.47,268.502 245.5,268.5C 253.167,268.833 260.833,269.167 268.5,269.5C 267.873,270.417 267.539,271.417 267.5,272.5 Z"/></g>
<g><path style="opacity:1" fill="#214fc2" d="M 345.5,225.5 C 345.194,228.385 345.527,231.052 346.5,233.5C 334.151,282.015 303.151,309.515 253.5,316C 223.137,318.185 197.137,308.852 175.5,288C 175.85,286.743 176.517,286.409 177.5,287C 198.978,306.826 224.312,315.493 253.5,313C 292.392,308.448 320.558,288.615 338,253.5C 340.883,244.128 343.383,234.795 345.5,225.5 Z"/></g>
<g><path style="opacity:1" fill="#2051c6" d="M 215.5,297.5 C 217.998,298.082 220.331,298.082 222.5,297.5C 234.743,299.48 247.077,299.98 259.5,299C 269.533,296.933 279.2,293.767 288.5,289.5C 288.292,280.182 292.458,277.516 301,281.5C 303.677,290.156 300.511,293.989 291.5,293C 290.892,292.13 290.059,291.63 289,291.5C 265.298,303.804 240.798,305.804 215.5,297.5 Z"/></g>
<g><path style="opacity:1" fill="#080b32" d="M 293.5,281.5 C 299.643,282.026 300.976,284.86 297.5,290C 290,290.196 288.667,287.363 293.5,281.5 Z"/></g>
<g><path style="opacity:1" fill="#1b5cce" d="M 269.5,267.5 C 270.222,267.918 270.722,268.584 271,269.5C 271.383,268.944 271.883,268.611 272.5,268.5C 271.275,274.558 267.609,278.058 261.5,279C 260.278,285.222 256.612,289.222 250.5,291C 243.675,292.799 237.842,291.299 233,286.5C 231.659,283.978 230.826,281.311 230.5,278.5C 229.5,278.5 228.5,278.5 227.5,278.5C 226.494,277.604 226.494,276.938 227.5,276.5C 239.171,276.667 250.838,276.5 262.5,276C 264.881,275.777 266.547,274.61 267.5,272.5C 269.213,271.365 269.88,269.698 269.5,267.5 Z"/></g>
<g><path style="opacity:1" fill="#08082f" d="M 233.5,279.5 C 241.903,278.866 249.903,279.533 257.5,281.5C 256.409,284.428 254.409,286.594 251.5,288C 247.5,288.667 243.5,288.667 239.5,288C 235.724,286.395 233.724,283.562 233.5,279.5 Z"/></g>
<g><path style="opacity:1" fill="#194197" d="M 233.5,279.5 C 241.65,278.507 249.983,278.174 258.5,278.5C 258.737,279.791 258.404,280.791 257.5,281.5C 249.903,279.533 241.903,278.866 233.5,279.5 Z"/></g>
<g><path style="opacity:1" fill="#1768d7" d="M 173.5,262.5 C 186.183,279.336 202.516,291.003 222.5,297.5C 220.331,298.082 217.998,298.082 215.5,297.5C 197.659,291.078 183.325,280.078 172.5,264.5C 173.338,264.158 173.672,263.492 173.5,262.5 Z"/></g>
<g><path style="opacity:1" fill="#7b7c91" d="M 290.5,329.5 C 288.5,329.5 286.5,329.5 284.5,329.5C 284.5,330.5 284.5,331.5 284.5,332.5C 283.566,331.432 283.232,330.099 283.5,328.5C 286.059,328.198 288.393,328.532 290.5,329.5 Z"/></g>
<g><path style="opacity:1" fill="#000" d="M 290.5,329.5 C 290.5,332.833 290.5,336.167 290.5,339.5C 288.5,339.5 286.5,339.5 284.5,339.5C 284.5,337.167 284.5,334.833 284.5,332.5C 284.5,331.5 284.5,330.5 284.5,329.5C 286.5,329.5 288.5,329.5 290.5,329.5 Z"/></g>
<g><path style="opacity:1" fill="#000" d="M 127.5,333.5 C 133.176,333.334 138.843,333.501 144.5,334C 157.905,339.326 161.238,348.492 154.5,361.5C 151.644,364.097 148.311,365.93 144.5,367C 138.843,367.499 133.176,367.666 127.5,367.5C 127.5,356.167 127.5,344.833 127.5,333.5 Z"/></g>
<g><path style="opacity:1" fill="#000" d="M 205.5,365.5 C 201.737,367.994 197.737,367.994 193.5,365.5C 191.702,359.689 191.035,353.689 191.5,347.5C 190.5,347.5 189.5,347.5 188.5,347.5C 188.5,345.167 188.5,342.833 188.5,340.5C 189.5,340.5 190.5,340.5 191.5,340.5C 191.5,338.167 191.5,335.833 191.5,333.5C 194.167,333.5 196.833,333.5 199.5,333.5C 199.5,335.833 199.5,338.167 199.5,340.5C 201.5,340.5 203.5,340.5 205.5,340.5C 205.5,342.833 205.5,345.167 205.5,347.5C 203.5,347.5 201.5,347.5 199.5,347.5C 199.334,351.514 199.501,355.514 200,359.5C 201.699,360.406 203.533,360.739 205.5,360.5C 205.5,362.167 205.5,363.833 205.5,365.5 Z"/></g>
<g><path style="opacity:1" fill="#000" d="M 281.5,365.5 C 277.737,367.994 273.737,367.994 269.5,365.5C 267.702,359.689 267.035,353.689 267.5,347.5C 266.5,347.5 265.5,347.5 264.5,347.5C 264.5,345.167 264.5,342.833 264.5,340.5C 265.5,340.5 266.5,340.5 267.5,340.5C 267.5,338.167 267.5,335.833 267.5,333.5C 270.167,333.5 272.833,333.5 275.5,333.5C 275.5,335.833 275.5,338.167 275.5,340.5C 277.5,340.5 279.5,340.5 281.5,340.5C 281.5,342.833 281.5,345.167 281.5,347.5C 279.5,347.5 277.5,347.5 275.5,347.5C 275.334,351.514 275.501,355.514 276,359.5C 277.699,360.406 279.533,360.739 281.5,360.5C 281.5,362.167 281.5,363.833 281.5,365.5 Z"/></g>
<g><path style="opacity:1" fill="#000" d="M 313.5,367.5 C 307.5,367.5 301.5,367.5 295.5,367.5C 295.5,356.167 295.5,344.833 295.5,333.5C 298.167,333.5 300.833,333.5 303.5,333.5C 303.5,342.833 303.5,352.167 303.5,361.5C 306.833,361.5 310.167,361.5 313.5,361.5C 313.5,363.5 313.5,365.5 313.5,367.5 Z"/></g>
<g><path style="opacity:1" fill="#000" d="M 325.5,339.5 C 324.527,341.948 324.194,344.615 324.5,347.5C 328.167,347.5 331.833,347.5 335.5,347.5C 336.461,349.265 336.795,351.265 336.5,353.5C 332.833,353.5 329.167,353.5 325.5,353.5C 325.5,356.167 325.5,358.833 325.5,361.5C 329.5,361.5 333.5,361.5 337.5,361.5C 337.5,362.833 337.5,364.167 337.5,365.5C 334.402,366.821 330.902,367.488 327,367.5C 323.098,367.488 319.598,366.821 316.5,365.5C 316.5,354.833 316.5,344.167 316.5,333.5C 323.5,333.5 330.5,333.5 337.5,333.5C 337.5,335.5 337.5,337.5 337.5,339.5C 333.5,339.5 329.5,339.5 325.5,339.5 Z"/></g>
<g><path style="opacity:1" fill="#000" d="M 370.5,339.5 C 375.222,348.404 374.222,356.571 367.5,364C 365.283,365.275 362.949,366.275 360.5,367C 355.177,367.499 349.844,367.666 344.5,367.5C 344.167,367.5 343.833,367.5 343.5,367.5C 343.5,356.167 343.5,344.833 343.5,333.5C 349.176,333.334 354.843,333.501 360.5,334C 364.211,335.227 367.545,337.06 370.5,339.5 Z"/></g>
<g><path style="opacity:1" fill="#08194b" d="M 127.5,333.5 C 127.5,344.833 127.5,356.167 127.5,367.5C 133.176,367.666 138.843,367.499 144.5,367C 148.311,365.93 151.644,364.097 154.5,361.5C 154.5,362.833 154.5,364.167 154.5,365.5C 154.5,410.167 154.5,454.833 154.5,499.5C 145.833,499.5 137.167,499.5 128.5,499.5C 129.96,497.537 131.627,495.704 133.5,494C 133.167,493.667 132.833,493.333 132.5,493C 136.985,487.851 140.652,482.184 143.5,476C 143.167,475.667 142.833,475.333 142.5,475C 143.833,472.333 145.167,469.667 146.5,467C 146.167,466.667 145.833,466.333 145.5,466C 146.833,463.333 148.167,460.667 149.5,458C 149.5,454.667 149.5,451.333 149.5,448C 150.167,446.667 150.833,445.333 151.5,444C 150.676,438.256 150.676,432.256 151.5,426C 150.833,424.667 150.167,423.333 149.5,422C 146.815,396.752 134.815,374.752 113.5,356C 107.087,352.507 100.921,348.34 95,343.5C 94.6667,343.833 94.3333,344.167 94,344.5C 92.0679,342.962 89.9012,341.795 87.5,341C 83.3123,340.824 79.3123,340.324 75.5,339.5C 79.5,339.5 83.5,339.5 87.5,339.5C 100.5,339.5 113.5,339.5 126.5,339.5C 126.205,337.265 126.539,335.265 127.5,333.5 Z"/></g>
<g><path style="opacity:1" fill="#08194c" d="M 370.5,339.5 C 383.833,339.5 397.167,339.5 410.5,339.5C 415.167,339.5 419.833,339.5 424.5,339.5C 420.353,340.325 416.019,340.825 411.5,341C 400.129,345.718 389.795,352.051 380.5,360C 364.072,375.934 354.072,393.934 350.5,414C 349.237,415.705 348.903,417.372 349.5,419C 348.833,421.667 348.167,424.333 347.5,427C 347.5,432.333 347.5,437.667 347.5,443C 348.167,446.333 348.833,449.667 349.5,453C 348.542,454.147 348.875,455.147 350.5,456C 350.167,456.333 349.833,456.667 349.5,457C 353.328,472.147 359.995,486.313 369.5,499.5C 361.167,499.5 352.833,499.5 344.5,499.5C 344.5,455.5 344.5,411.5 344.5,367.5C 349.844,367.666 355.177,367.499 360.5,367C 362.949,366.275 365.283,365.275 367.5,364C 374.222,356.571 375.222,348.404 370.5,339.5 Z"/></g>
<g><path style="opacity:1" fill="#0b133d" d="M 141.5,340.5 C 149.376,343.275 151.543,348.608 148,356.5C 146.429,358.923 144.263,360.256 141.5,360.5C 139.833,360.5 138.167,360.5 136.5,360.5C 136.5,353.833 136.5,347.167 136.5,340.5C 138.167,340.5 139.833,340.5 141.5,340.5 Z"/></g>
<g><path style="opacity:1" fill="#000" d="M 181.5,365.5 C 175.806,368.105 170.139,368.105 164.5,365.5C 157.012,356.234 158.012,348.067 167.5,341C 180.037,338.711 186.37,343.878 186.5,356.5C 180.463,356.171 174.463,356.504 168.5,357.5C 169.337,359.505 170.837,360.505 173,360.5C 176.925,358.783 181.092,358.116 185.5,358.5C 185.039,361.303 183.705,363.637 181.5,365.5 Z"/></g>
<g><path style="opacity:1" fill="#000" d="M 234.5,356.5 C 228.463,356.171 222.463,356.504 216.5,357.5C 216.624,358.107 216.957,358.44 217.5,358.5C 218.312,359.993 219.645,360.66 221.5,360.5C 225.364,358.974 229.364,358.308 233.5,358.5C 233.312,361.206 232.312,363.539 230.5,365.5C 224.437,368.117 218.437,368.117 212.5,365.5C 211.164,363.99 209.997,362.323 209,360.5C 205.553,346.286 211.053,339.786 225.5,341C 233.095,343.712 236.095,348.879 234.5,356.5 Z"/></g>
<g><path style="opacity:1" fill="#000" d="M 259.5,365.5 C 253.437,368.117 247.437,368.117 241.5,365.5C 240.093,363.692 238.926,361.692 238,359.5C 235.993,352.319 237.826,346.485 243.5,342C 252.147,338.415 258.814,340.581 263.5,348.5C 262,348.833 260.5,349.167 259,349.5C 255.575,348.399 252.075,347.899 248.5,348C 245.03,351.337 244.53,355.17 247,359.5C 248.062,360.097 249.228,360.43 250.5,360.5C 254.611,358.654 258.944,358.154 263.5,359C 262.281,361.278 260.948,363.445 259.5,365.5 Z"/></g>
<g><path style="opacity:1" fill="#0b133e" d="M 357.5,340.5 C 365.376,343.275 367.543,348.608 364,356.5C 362.429,358.923 360.263,360.256 357.5,360.5C 355.833,360.5 354.167,360.5 352.5,360.5C 352.5,353.833 352.5,347.167 352.5,340.5C 354.167,340.5 355.833,340.5 357.5,340.5 Z"/></g>
<g><path style="opacity:1" fill="#06235f" d="M 115.5,499.5 C 110.5,499.5 105.5,499.5 100.5,499.5C 109.271,491.618 116.438,482.951 122,473.5C 125.63,464.921 128.463,456.755 130.5,449C 129.521,447.221 129.854,445.555 131.5,444C 131.5,438.667 131.5,433.333 131.5,428C 129.854,426.445 129.521,424.779 130.5,423C 125.966,399.041 113.466,379.875 93,365.5C 92.6667,365.833 92.3333,366.167 92,366.5C 88.546,364.487 84.8793,362.154 81,359.5C 80.6667,359.833 80.3333,360.167 80,360.5C 76.5362,358.453 72.8695,356.787 69,355.5C 68.6667,355.833 68.3333,356.167 68,356.5C 65.075,355.249 62.075,354.249 59,353.5C 52.3333,353.5 45.6667,353.5 39,353.5C 35.4434,355.643 32.11,356.309 29,355.5C 27.108,356.13 25.4413,357.13 24,358.5C 21.8159,357.892 19.8159,358.559 18,360.5C 17.6667,360.167 17.3333,359.833 17,359.5C 14.6667,361.167 12.3333,362.833 10,364.5C 9.66667,364.167 9.33333,363.833 9,363.5C 5.89271,365.965 2.72604,368.298 -0.5,370.5C -0.5,366.5 -0.5,362.5 -0.5,358.5C 3.02642,356.99 5.85975,354.656 8,351.5C 9.4299,351.306 10.9299,351.306 12.5,351.5C 13.906,350.049 15.406,348.716 17,347.5C 18.6667,347.833 20.3333,348.167 22,348.5C 24.2609,346.617 26.4276,345.284 28.5,344.5C 31.1457,343.796 33.979,343.796 37,344.5C 38.3129,343.427 39.8129,342.76 41.5,342.5C 45.721,343.607 49.8877,343.607 54,342.5C 55.4728,342.903 56.8061,343.57 58,344.5C 60.176,344.572 62.176,344.238 64,343.5C 65.5548,345.146 67.2215,345.479 69,344.5C 69.6667,345.167 70.3333,345.833 71,346.5C 73.1299,346.587 75.2966,346.587 77.5,346.5C 78.1924,347.025 78.6924,347.692 79,348.5C 80.5026,348.165 81.836,348.165 83,348.5C 83.9154,350.98 85.4154,351.647 87.5,350.5C 91.8874,354.297 96.8874,356.964 102.5,358.5C 102.312,360.103 102.812,361.437 104,362.5C 105,362.5 106,362.5 107,362.5C 115.84,369.998 123.174,378.664 129,388.5C 130.488,392.81 132.488,396.81 135,400.5C 133.955,404.283 135.121,407.449 138.5,410C 139.217,413.135 139.217,416.802 138.5,421C 139.376,422.586 140.376,424.086 141.5,425.5C 140.32,432.013 140.32,438.513 141.5,445C 138.572,447.206 137.905,449.873 139.5,453C 139.198,456.708 138.198,460.208 136.5,463.5C 136.709,464.086 137.043,464.586 137.5,465C 134.478,468.214 132.978,472.048 133,476.5C 128.91,481.018 125.577,486.018 123,491.5C 120.267,494.062 117.767,496.729 115.5,499.5 Z"/></g>
<g><path style="opacity:1" fill="#797990" d="M 325.5,339.5 C 325.5,341.833 325.5,344.167 325.5,346.5C 329.042,346.187 332.375,346.521 335.5,347.5C 331.833,347.5 328.167,347.5 324.5,347.5C 324.194,344.615 324.527,341.948 325.5,339.5 Z"/></g>
<g><path style="opacity:1" fill="#06235f" d="M 499.5,356.5 C 499.5,360.833 499.5,365.167 499.5,369.5C 498.883,369.611 498.383,369.944 498,370.5C 493.108,366.394 487.441,362.728 481,359.5C 479.434,360.061 478.101,359.394 477,357.5C 476.667,357.833 476.333,358.167 476,358.5C 471,356.833 466,355.167 461,353.5C 453.667,354.833 446.333,354.833 439,353.5C 435.443,355.643 432.11,356.309 429,355.5C 427.108,356.13 425.441,357.13 424,358.5C 423.667,358.167 423.333,357.833 423,357.5C 420,359.167 417,360.833 414,362.5C 413.667,362.167 413.333,361.833 413,361.5C 409.71,363.481 406.71,365.814 404,368.5C 403.667,368.167 403.333,367.833 403,367.5C 386.604,380.136 375.437,396.636 369.5,417C 370.458,418.147 370.125,419.147 368.5,420C 368.833,420.333 369.167,420.667 369.5,421C 368.833,423.667 368.167,426.333 367.5,429C 368.833,433.667 368.833,438.333 367.5,443C 368.853,446.838 369.853,450.505 370.5,454C 370.167,454.333 369.833,454.667 369.5,455C 371.849,460.286 373.683,465.452 375,470.5C 376.758,471.469 377.258,472.636 376.5,474C 379.515,478.049 382.348,482.216 385,486.5C 389.37,490.702 393.537,495.036 397.5,499.5C 392.167,499.5 386.833,499.5 381.5,499.5C 379.491,496.646 377.657,493.646 376,490.5C 374.649,488.981 373.149,487.648 371.5,486.5C 367.891,478.398 364.225,470.731 360.5,463.5C 361.025,462.808 361.692,462.308 362.5,462C 359.317,458.523 358.317,454.856 359.5,451C 358.12,449.676 357.786,448.343 358.5,447C 355.888,442.784 355.888,439.117 358.5,436C 357.833,435.667 357.167,435.333 356.5,435C 357.833,434.333 357.833,433.667 356.5,433C 359.167,432.333 359.167,431.667 356.5,431C 357.167,429 357.833,427 358.5,425C 357.833,424.667 357.167,424.333 356.5,424C 358.667,422.144 359.334,419.977 358.5,417.5C 359.527,413.809 360.86,410.309 362.5,407C 362.167,406.667 361.833,406.333 361.5,406C 363.641,402.425 365.307,398.591 366.5,394.5C 366.291,393.914 365.957,393.414 365.5,393C 366.984,391.426 368.651,390.093 370.5,389C 370.043,388.586 369.709,388.086 369.5,387.5C 370.833,386.5 372.167,385.5 373.5,384.5C 374.711,383.28 374.711,382.113 373.5,381C 378.562,376.726 383.062,371.893 387,366.5C 387.333,366.833 387.667,367.167 388,367.5C 391,364.5 394,361.5 397,358.5C 398.825,359.571 399.992,358.904 400.5,356.5C 402.465,355.708 404.465,355.041 406.5,354.5C 407.251,353.624 407.751,352.624 408,351.5C 408.333,351.833 408.667,352.167 409,352.5C 412.717,350.629 416.55,348.963 420.5,347.5C 422.5,347.833 424.5,348.167 426.5,348.5C 427.281,347.271 427.781,345.938 428,344.5C 429.587,345.727 430.921,345.394 432,343.5C 442.279,342.725 452.945,342.725 464,343.5C 465.555,345.146 467.221,345.479 469,344.5C 469.667,345.167 470.333,345.833 471,346.5C 473.13,346.587 475.297,346.587 477.5,346.5C 479.258,347.128 480.758,348.128 482,349.5C 482.333,349.167 482.667,348.833 483,348.5C 486.723,350.119 490.389,352.453 494,355.5C 494.414,355.043 494.914,354.709 495.5,354.5C 496.368,356.796 497.702,357.463 499.5,356.5 Z"/></g>
<g><path style="opacity:1" fill="#111535" d="M 170.5,347.5 C 174.005,346.891 176.672,348.058 178.5,351C 175.118,351.824 171.784,351.657 168.5,350.5C 169.193,349.482 169.859,348.482 170.5,347.5 Z"/></g>
<g><path style="opacity:1" fill="#131636" d="M 218.5,347.5 C 221.798,347.016 224.464,348.016 226.5,350.5C 223.167,351.833 219.833,351.833 216.5,350.5C 217.193,349.482 217.859,348.482 218.5,347.5 Z"/></g>
<g><path style="opacity:1" fill="#343d63" d="M 141.5,340.5 C 139.833,340.5 138.167,340.5 136.5,340.5C 136.5,347.167 136.5,353.833 136.5,360.5C 138.167,360.5 139.833,360.5 141.5,360.5C 139.735,361.461 137.735,361.795 135.5,361.5C 135.5,354.167 135.5,346.833 135.5,339.5C 137.735,339.205 139.735,339.539 141.5,340.5 Z"/></g>
<g><path style="opacity:1" fill="#34395d" d="M 357.5,340.5 C 355.833,340.5 354.167,340.5 352.5,340.5C 352.5,347.167 352.5,353.833 352.5,360.5C 354.167,360.5 355.833,360.5 357.5,360.5C 355.735,361.461 353.735,361.795 351.5,361.5C 351.5,354.167 351.5,346.833 351.5,339.5C 353.735,339.205 355.735,339.539 357.5,340.5 Z"/></g>
<g><path style="opacity:1" fill="#052766" d="M 100.5,499.5 C 95.8333,499.5 91.1667,499.5 86.5,499.5C 93.4803,495.48 100.314,489.813 107,482.5C 109.95,476.655 113.45,471.155 117.5,466C 116.542,464.853 116.875,463.853 118.5,463C 118.167,462.667 117.833,462.333 117.5,462C 119.441,460.184 120.108,458.184 119.5,456C 120.167,455.333 120.833,454.667 121.5,454C 121.5,452 121.5,450 121.5,448C 122.167,446.667 122.833,445.333 123.5,444C 123.233,438.934 123.233,433.6 123.5,428C 122.833,426.667 122.167,425.333 121.5,424C 121.833,423 122.167,422 122.5,421C 119.71,411.695 115.877,402.528 111,393.5C 105.939,388.926 101.939,384.259 99,379.5C 98.6667,379.833 98.3333,380.167 98,380.5C 91.6306,374.244 83.964,369.244 75,365.5C 74.6667,365.833 74.3333,366.167 74,366.5C 72.1841,364.559 70.1841,363.892 68,364.5C 65.6667,363.5 63.3333,362.5 61,361.5C 53.2723,361.671 45.2723,361.671 37,361.5C 35.3333,362.5 33.6667,363.5 32,364.5C 29.3876,363.327 26.7209,363.994 24,366.5C 22.4345,365.939 21.1011,366.606 20,368.5C 17.0758,368.626 14.4092,369.959 12,372.5C 11.6667,372.167 11.3333,371.833 11,371.5C 6.86447,374.147 3.03114,377.147 -0.5,380.5C -0.5,377.167 -0.5,373.833 -0.5,370.5C 2.72604,368.298 5.89271,365.965 9,363.5C 9.33333,363.833 9.66667,364.167 10,364.5C 12.3333,362.833 14.6667,361.167 17,359.5C 17.3333,359.833 17.6667,360.167 18,360.5C 19.8159,358.559 21.8159,357.892 24,358.5C 25.4413,357.13 27.108,356.13 29,355.5C 32.11,356.309 35.4434,355.643 39,353.5C 45.6667,353.5 52.3333,353.5 59,353.5C 62.075,354.249 65.075,355.249 68,356.5C 68.3333,356.167 68.6667,355.833 69,355.5C 72.8695,356.787 76.5362,358.453 80,360.5C 80.3333,360.167 80.6667,359.833 81,359.5C 84.8793,362.154 88.546,364.487 92,366.5C 92.3333,366.167 92.6667,365.833 93,365.5C 113.466,379.875 125.966,399.041 130.5,423C 129.521,424.779 129.854,426.445 131.5,428C 131.5,433.333 131.5,438.667 131.5,444C 129.854,445.555 129.521,447.221 130.5,449C 128.463,456.755 125.63,464.921 122,473.5C 116.438,482.951 109.271,491.618 100.5,499.5 Z"/></g>
<g><path style="opacity:1" fill="#052767" d="M 499.5,369.5 C 499.5,372.833 499.5,376.167 499.5,379.5C 496.011,378.523 493.177,376.523 491,373.5C 490.667,373.833 490.333,374.167 490,374.5C 488.333,372.833 486.667,371.167 485,369.5C 484.667,369.833 484.333,370.167 484,370.5C 478.953,367.466 473.953,365.132 469,363.5C 468.667,363.833 468.333,364.167 468,364.5C 465.667,363.5 463.333,362.5 461,361.5C 453.937,361.708 446.604,361.708 439,361.5C 420.461,365.14 404.461,374.473 391,389.5C 387.311,394.561 384.144,399.727 381.5,405C 381.833,405.333 382.167,405.667 382.5,406C 381.167,408 379.833,410 378.5,412C 378.5,414 378.5,416 378.5,418C 377.833,418.667 377.167,419.333 376.5,420C 375.535,429.886 375.535,439.886 376.5,450C 378.003,454.865 379.503,459.698 381,464.5C 388.219,479.351 398.386,491.018 411.5,499.5C 406.833,499.5 402.167,499.5 397.5,499.5C 393.537,495.036 389.37,490.702 385,486.5C 382.348,482.216 379.515,478.049 376.5,474C 377.258,472.636 376.758,471.469 375,470.5C 373.683,465.452 371.849,460.286 369.5,455C 369.833,454.667 370.167,454.333 370.5,454C 369.853,450.505 368.853,446.838 367.5,443C 368.833,438.333 368.833,433.667 367.5,429C 368.167,426.333 368.833,423.667 369.5,421C 369.167,420.667 368.833,420.333 368.5,420C 370.125,419.147 370.458,418.147 369.5,417C 375.437,396.636 386.604,380.136 403,367.5C 403.333,367.833 403.667,368.167 404,368.5C 406.71,365.814 409.71,363.481 413,361.5C 413.333,361.833 413.667,362.167 414,362.5C 417,360.833 420,359.167 423,357.5C 423.333,357.833 423.667,358.167 424,358.5C 425.441,357.13 427.108,356.13 429,355.5C 432.11,356.309 435.443,355.643 439,353.5C 446.333,354.833 453.667,354.833 461,353.5C 466,355.167 471,356.833 476,358.5C 476.333,358.167 476.667,357.833 477,357.5C 478.101,359.394 479.434,360.061 481,359.5C 487.441,362.728 493.108,366.394 498,370.5C 498.383,369.944 498.883,369.611 499.5,369.5 Z"/></g>
<g><path style="opacity:1" fill="#3f3f5c" d="M 234.5,356.5 C 228.833,357.167 223.167,357.833 217.5,358.5C 216.957,358.44 216.624,358.107 216.5,357.5C 222.463,356.504 228.463,356.171 234.5,356.5 Z"/></g>
<g><path style="opacity:1" fill="#042a6d" d="M 86.5,499.5 C 81.1667,499.5 75.8333,499.5 70.5,499.5C 71.531,498.751 72.6976,498.085 74,497.5C 75.5655,498.061 76.8989,497.394 78,495.5C 79.5655,496.061 80.8989,495.394 82,493.5C 82.3333,493.833 82.6667,494.167 83,494.5C 89.9976,489.536 96.6642,483.536 103,476.5C 106.838,470.126 110.338,463.959 113.5,458C 112.892,455.816 113.559,453.816 115.5,452C 115.767,447.733 115.767,443.733 115.5,440C 116.167,438 116.833,436 117.5,434C 116.833,433.333 116.167,432.667 115.5,432C 116.433,428.471 116.433,424.471 115.5,420C 113.875,419.147 113.542,418.147 114.5,417C 113.87,415.108 112.87,413.441 111.5,412C 112.122,409.246 111.122,406.913 108.5,405C 109.061,403.434 108.394,402.101 106.5,401C 106.019,398.653 104.519,396.487 102,394.5C 101.667,393.5 101.333,392.5 101,391.5C 95.944,385.843 90.6107,381.176 85,377.5C 84.6667,377.833 84.3333,378.167 84,378.5C 81.6667,376.833 79.3333,375.167 77,373.5C 76.6667,373.833 76.3333,374.167 76,374.5C 72.5362,372.453 68.8695,370.787 65,369.5C 64.6667,369.833 64.3333,370.167 64,370.5C 61.075,369.249 58.075,368.249 55,367.5C 51,367.5 47,367.5 43,367.5C 39.925,368.249 36.925,369.249 34,370.5C 20.9761,372.638 9.47606,379.305 -0.5,390.5C -0.5,387.167 -0.5,383.833 -0.5,380.5C 3.03114,377.147 6.86447,374.147 11,371.5C 11.3333,371.833 11.6667,372.167 12,372.5C 14.4092,369.959 17.0758,368.626 20,368.5C 21.1011,366.606 22.4345,365.939 24,366.5C 26.7209,363.994 29.3876,363.327 32,364.5C 33.6667,363.5 35.3333,362.5 37,361.5C 45.2723,361.671 53.2723,361.671 61,361.5C 63.3333,362.5 65.6667,363.5 68,364.5C 70.1841,363.892 72.1841,364.559 74,366.5C 74.3333,366.167 74.6667,365.833 75,365.5C 83.964,369.244 91.6306,374.244 98,380.5C 98.3333,380.167 98.6667,379.833 99,379.5C 101.939,384.259 105.939,388.926 111,393.5C 115.877,402.528 119.71,411.695 122.5,421C 122.167,422 121.833,423 121.5,424C 122.167,425.333 122.833,426.667 123.5,428C 123.233,433.6 123.233,438.934 123.5,444C 122.833,445.333 122.167,446.667 121.5,448C 121.5,450 121.5,452 121.5,454C 120.833,454.667 120.167,455.333 119.5,456C 120.108,458.184 119.441,460.184 117.5,462C 117.833,462.333 118.167,462.667 118.5,463C 116.875,463.853 116.542,464.853 117.5,466C 113.45,471.155 109.95,476.655 107,482.5C 100.314,489.813 93.4803,495.48 86.5,499.5 Z"/></g>
<g><path style="opacity:1" fill="#042a6d" d="M 499.5,379.5 C 499.5,382.833 499.5,386.167 499.5,389.5C 479.675,371.245 457.508,364.578 433,369.5C 411.293,376.496 395.459,390.996 385.5,413C 386.458,414.147 386.125,415.147 384.5,416C 377.875,443.837 385.375,468.004 407,488.5C 407.333,488.167 407.667,487.833 408,487.5C 413.892,493.375 420.392,497.375 427.5,499.5C 422.167,499.5 416.833,499.5 411.5,499.5C 398.386,491.018 388.219,479.351 381,464.5C 379.503,459.698 378.003,454.865 376.5,450C 375.535,439.886 375.535,429.886 376.5,420C 377.167,419.333 377.833,418.667 378.5,418C 378.5,416 378.5,414 378.5,412C 379.833,410 381.167,408 382.5,406C 382.167,405.667 381.833,405.333 381.5,405C 384.144,399.727 387.311,394.561 391,389.5C 404.461,374.473 420.461,365.14 439,361.5C 446.604,361.708 453.937,361.708 461,361.5C 463.333,362.5 465.667,363.5 468,364.5C 468.333,364.167 468.667,363.833 469,363.5C 473.953,365.132 478.953,367.466 484,370.5C 484.333,370.167 484.667,369.833 485,369.5C 486.667,371.167 488.333,372.833 490,374.5C 490.333,374.167 490.667,373.833 491,373.5C 493.177,376.523 496.011,378.523 499.5,379.5 Z"/></g>
<g><path style="opacity:1" fill="#0d0c38" d="M 154.5,365.5 C 157.833,365.5 161.167,365.5 164.5,365.5C 170.139,368.105 175.806,368.105 181.5,365.5C 185.5,365.5 189.5,365.5 193.5,365.5C 197.737,367.994 201.737,367.994 205.5,365.5C 207.833,365.5 210.167,365.5 212.5,365.5C 218.437,368.117 224.437,368.117 230.5,365.5C 234.167,365.5 237.833,365.5 241.5,365.5C 247.437,368.117 253.437,368.117 259.5,365.5C 262.833,365.5 266.167,365.5 269.5,365.5C 273.737,367.994 277.737,367.994 281.5,365.5C 286.48,364.985 291.146,365.652 295.5,367.5C 301.5,367.5 307.5,367.5 313.5,367.5C 314.222,366.449 315.222,365.782 316.5,365.5C 319.598,366.821 323.098,367.488 327,367.5C 330.902,367.488 334.402,366.821 337.5,365.5C 339.886,365.259 341.886,365.925 343.5,367.5C 343.833,367.5 344.167,367.5 344.5,367.5C 344.5,411.5 344.5,455.5 344.5,499.5C 281.167,499.5 217.833,499.5 154.5,499.5C 154.5,454.833 154.5,410.167 154.5,365.5 Z"/></g>
<g><path style="opacity:1" fill="#042c72" d="M 70.5,499.5 C 46.8333,499.5 23.1667,499.5 -0.5,499.5C -0.5,490.167 -0.5,480.833 -0.5,471.5C 22.987,496.816 49.3204,502.649 78.5,489C 79.6667,487.833 80.8333,486.667 82,485.5C 82.3333,485.833 82.6667,486.167 83,486.5C 87.5807,481.686 91.5807,478.353 95,476.5C 97.9495,470.655 101.45,465.155 105.5,460C 105.167,459.667 104.833,459.333 104.5,459C 105.476,456.537 106.809,453.87 108.5,451C 113.793,425.897 105.96,404.063 85,385.5C 84.6667,385.833 84.3333,386.167 84,386.5C 80.9148,383.332 77.5814,381.332 74,380.5C 72.108,379.87 70.4413,378.87 69,377.5C 67.6667,377.5 66.3333,377.5 65,377.5C 63.4452,375.854 61.7785,375.521 60,376.5C 58,375.833 56,375.167 54,374.5C 50.408,374.87 47.0747,374.87 44,374.5C 42.6667,375.167 41.3333,375.833 40,376.5C 38.3333,376.167 36.6667,375.833 35,375.5C 33.1841,377.441 31.1841,378.108 29,377.5C 24.7266,379.479 20.5599,381.645 16.5,384C 9.51092,388.494 3.84425,393.994 -0.5,400.5C -0.5,397.167 -0.5,393.833 -0.5,390.5C 9.47606,379.305 20.9761,372.638 34,370.5C 36.925,369.249 39.925,368.249 43,367.5C 47,367.5 51,367.5 55,367.5C 58.075,368.249 61.075,369.249 64,370.5C 64.3333,370.167 64.6667,369.833 65,369.5C 68.8695,370.787 72.5362,372.453 76,374.5C 76.3333,374.167 76.6667,373.833 77,373.5C 79.3333,375.167 81.6667,376.833 84,378.5C 84.3333,378.167 84.6667,377.833 85,377.5C 90.6107,381.176 95.944,385.843 101,391.5C 101.333,392.5 101.667,393.5 102,394.5C 104.519,396.487 106.019,398.653 106.5,401C 108.394,402.101 109.061,403.434 108.5,405C 111.122,406.913 112.122,409.246 111.5,412C 112.87,413.441 113.87,415.108 114.5,417C 113.542,418.147 113.875,419.147 115.5,420C 116.433,424.471 116.433,428.471 115.5,432C 116.167,432.667 116.833,433.333 117.5,434C 116.833,436 116.167,438 115.5,440C 115.767,443.733 115.767,447.733 115.5,452C 113.559,453.816 112.892,455.816 113.5,458C 110.338,463.959 106.838,470.126 103,476.5C 96.6642,483.536 89.9976,489.536 83,494.5C 82.6667,494.167 82.3333,493.833 82,493.5C 80.8989,495.394 79.5655,496.061 78,495.5C 76.8989,497.394 75.5655,498.061 74,497.5C 72.6976,498.085 71.531,498.751 70.5,499.5 Z"/></g>
<g><path style="opacity:1" fill="#042c72" d="M 499.5,389.5 C 499.5,392.833 499.5,396.167 499.5,399.5C 494.535,395.037 489.702,390.37 485,385.5C 484.667,385.833 484.333,386.167 484,386.5C 481.29,383.814 478.29,381.481 475,379.5C 474.667,379.833 474.333,380.167 474,380.5C 472.559,379.13 470.892,378.13 469,377.5C 467.667,377.5 466.333,377.5 465,377.5C 463.445,375.854 461.779,375.521 460,376.5C 458.667,375.833 457.333,375.167 456,374.5C 452,374.5 448,374.5 444,374.5C 439.5,375.106 434.833,376.44 430,378.5C 425.616,379.023 421.616,381.023 418,384.5C 417.667,384.167 417.333,383.833 417,383.5C 414.255,386.245 411.921,388.579 410,390.5C 409.667,390.167 409.333,389.833 409,389.5C 401.25,397.319 395.083,406.819 390.5,418C 390.5,420.667 390.5,423.333 390.5,426C 389.833,427.333 389.167,428.667 388.5,430C 389.097,434.229 389.097,438.229 388.5,442C 389.5,445 390.5,448 391.5,451C 390.542,452.147 390.875,453.147 392.5,454C 392.5,455.333 392.5,456.667 392.5,458C 401.443,476.33 414.943,488.497 433,494.5C 435,494.5 437,494.5 439,494.5C 440.333,495.167 441.667,495.833 443,496.5C 447,496.5 451,496.5 455,496.5C 458.075,495.751 461.075,494.751 464,493.5C 473.296,492.975 481.296,488.975 488,481.5C 488.333,481.833 488.667,482.167 489,482.5C 492.745,478.596 496.245,474.596 499.5,470.5C 499.5,480.167 499.5,489.833 499.5,499.5C 475.5,499.5 451.5,499.5 427.5,499.5C 420.392,497.375 413.892,493.375 408,487.5C 407.667,487.833 407.333,488.167 407,488.5C 385.375,468.004 377.875,443.837 384.5,416C 386.125,415.147 386.458,414.147 385.5,413C 395.459,390.996 411.293,376.496 433,369.5C 457.508,364.578 479.675,371.245 499.5,389.5 Z"/></g>
<g><path style="opacity:1" fill="#043079" d="M -0.5,471.5 C -0.5,466.833 -0.5,462.167 -0.5,457.5C 1.9559,463.08 5.62256,468.414 10.5,473.5C 15.4621,477.712 20.2954,481.379 25,484.5C 25.3333,484.167 25.6667,483.833 26,483.5C 29,485.167 32,486.833 35,488.5C 36,488.167 37,487.833 38,487.5C 39.3333,488.167 40.6667,488.833 42,489.5C 47.9621,489.999 53.9621,489.332 60,487.5C 61,487.833 62,488.167 63,488.5C 64.8159,486.559 66.8159,485.892 69,486.5C 70.1011,484.606 71.4345,483.939 73,484.5C 74.1011,482.606 75.4345,481.939 77,482.5C 80.0617,478.812 83.395,476.145 87,474.5C 100.738,458.475 105.904,441.975 102.5,425C 101.237,423.295 100.903,421.628 101.5,420C 99.8753,419.147 99.5419,418.147 100.5,417C 98.8753,416.147 98.5419,415.147 99.5,414C 94.4787,404.92 87.6454,396.754 79,389.5C 78.6667,389.833 78.3333,390.167 78,390.5C 74.1207,387.846 70.454,385.513 67,383.5C 66,383.833 65,384.167 64,384.5C 62.5587,383.13 60.892,382.13 59,381.5C 53,381.5 47,381.5 41,381.5C 39.2949,382.763 37.6282,383.097 36,382.5C 24.7719,386.082 14.4386,393.082 5,403.5C 2.52474,407.156 0.691407,410.823 -0.5,414.5C -0.5,409.833 -0.5,405.167 -0.5,400.5C 3.84425,393.994 9.51092,388.494 16.5,384C 20.5599,381.645 24.7266,379.479 29,377.5C 31.1841,378.108 33.1841,377.441 35,375.5C 36.6667,375.833 38.3333,376.167 40,376.5C 41.3333,375.833 42.6667,375.167 44,374.5C 47.0747,374.87 50.408,374.87 54,374.5C 56,375.167 58,375.833 60,376.5C 61.7785,375.521 63.4452,375.854 65,377.5C 66.3333,377.5 67.6667,377.5 69,377.5C 70.4413,378.87 72.108,379.87 74,380.5C 77.5814,381.332 80.9148,383.332 84,386.5C 84.3333,386.167 84.6667,385.833 85,385.5C 105.96,404.063 113.793,425.897 108.5,451C 106.809,453.87 105.476,456.537 104.5,459C 104.833,459.333 105.167,459.667 105.5,460C 101.45,465.155 97.9495,470.655 95,476.5C 91.5807,478.353 87.5807,481.686 83,486.5C 82.6667,486.167 82.3333,485.833 82,485.5C 80.8333,486.667 79.6667,487.833 78.5,489C 49.3204,502.649 22.987,496.816 -0.5,471.5 Z"/></g>
<g><path style="opacity:1" fill="#043079" d="M 499.5,399.5 C 499.5,404.167 499.5,408.833 499.5,413.5C 493.729,404.085 486.896,396.085 479,389.5C 478.667,389.833 478.333,390.167 478,390.5C 474.333,388.167 470.667,385.833 467,383.5C 466,383.833 465,384.167 464,384.5C 462.559,383.13 460.892,382.13 459,381.5C 453,381.5 447,381.5 441,381.5C 416.473,387.36 401.307,402.527 395.5,427C 395.869,432.219 395.869,437.553 395.5,443C 400.921,465.758 414.754,480.924 437,488.5C 458.294,491.829 476.294,485.829 491,470.5C 492.557,467.227 494.724,464.394 497.5,462C 497.5,460.667 497.5,459.333 497.5,458C 498.044,457.283 498.711,456.783 499.5,456.5C 499.5,461.167 499.5,465.833 499.5,470.5C 496.245,474.596 492.745,478.596 489,482.5C 488.667,482.167 488.333,481.833 488,481.5C 481.296,488.975 473.296,492.975 464,493.5C 461.075,494.751 458.075,495.751 455,496.5C 451,496.5 447,496.5 443,496.5C 441.667,495.833 440.333,495.167 439,494.5C 437,494.5 435,494.5 433,494.5C 414.943,488.497 401.443,476.33 392.5,458C 392.5,456.667 392.5,455.333 392.5,454C 390.875,453.147 390.542,452.147 391.5,451C 390.5,448 389.5,445 388.5,442C 389.097,438.229 389.097,434.229 388.5,430C 389.167,428.667 389.833,427.333 390.5,426C 390.5,423.333 390.5,420.667 390.5,418C 395.083,406.819 401.25,397.319 409,389.5C 409.333,389.833 409.667,390.167 410,390.5C 411.921,388.579 414.255,386.245 417,383.5C 417.333,383.833 417.667,384.167 418,384.5C 421.616,381.023 425.616,379.023 430,378.5C 434.833,376.44 439.5,375.106 444,374.5C 448,374.5 452,374.5 456,374.5C 457.333,375.167 458.667,375.833 460,376.5C 461.779,375.521 463.445,375.854 465,377.5C 466.333,377.5 467.667,377.5 469,377.5C 470.892,378.13 472.559,379.13 474,380.5C 474.333,380.167 474.667,379.833 475,379.5C 478.29,381.481 481.29,383.814 484,386.5C 484.333,386.167 484.667,385.833 485,385.5C 489.702,390.37 494.535,395.037 499.5,399.5 Z"/></g>
<g><path style="opacity:1" fill="#061e56" d="M 424.5,339.5 C 449.5,339.5 474.5,339.5 499.5,339.5C 499.5,345.167 499.5,350.833 499.5,356.5C 497.702,357.463 496.368,356.796 495.5,354.5C 494.914,354.709 494.414,355.043 494,355.5C 490.389,352.453 486.723,350.119 483,348.5C 482.667,348.833 482.333,349.167 482,349.5C 480.758,348.128 479.258,347.128 477.5,346.5C 475.297,346.587 473.13,346.587 471,346.5C 470.333,345.833 469.667,345.167 469,344.5C 467.221,345.479 465.555,345.146 464,343.5C 452.945,342.725 442.279,342.725 432,343.5C 430.921,345.394 429.587,345.727 428,344.5C 427.781,345.938 427.281,347.271 426.5,348.5C 424.5,348.167 422.5,347.833 420.5,347.5C 416.55,348.963 412.717,350.629 409,352.5C 408.667,352.167 408.333,351.833 408,351.5C 407.751,352.624 407.251,353.624 406.5,354.5C 404.465,355.041 402.465,355.708 400.5,356.5C 399.992,358.904 398.825,359.571 397,358.5C 394,361.5 391,364.5 388,367.5C 387.667,367.167 387.333,366.833 387,366.5C 383.062,371.893 378.562,376.726 373.5,381C 374.711,382.113 374.711,383.28 373.5,384.5C 372.167,385.5 370.833,386.5 369.5,387.5C 369.709,388.086 370.043,388.586 370.5,389C 368.651,390.093 366.984,391.426 365.5,393C 365.957,393.414 366.291,393.914 366.5,394.5C 365.307,398.591 363.641,402.425 361.5,406C 361.833,406.333 362.167,406.667 362.5,407C 360.86,410.309 359.527,413.809 358.5,417.5C 359.334,419.977 358.667,422.144 356.5,424C 357.167,424.333 357.833,424.667 358.5,425C 357.833,427 357.167,429 356.5,431C 359.167,431.667 359.167,432.333 356.5,433C 357.833,433.667 357.833,434.333 356.5,435C 357.167,435.333 357.833,435.667 358.5,436C 355.888,439.117 355.888,442.784 358.5,447C 357.786,448.343 358.12,449.676 359.5,451C 358.317,454.856 359.317,458.523 362.5,462C 361.692,462.308 361.025,462.808 360.5,463.5C 364.225,470.731 367.891,478.398 371.5,486.5C 373.149,487.648 374.649,488.981 376,490.5C 377.657,493.646 379.491,496.646 381.5,499.5C 377.5,499.5 373.5,499.5 369.5,499.5C 359.995,486.313 353.328,472.147 349.5,457C 349.833,456.667 350.167,456.333 350.5,456C 348.875,455.147 348.542,454.147 349.5,453C 348.833,449.667 348.167,446.333 347.5,443C 347.5,437.667 347.5,432.333 347.5,427C 348.167,424.333 348.833,421.667 349.5,419C 348.903,417.372 349.237,415.705 350.5,414C 354.072,393.934 364.072,375.934 380.5,360C 389.795,352.051 400.129,345.718 411.5,341C 416.019,340.825 420.353,340.325 424.5,339.5 Z"/></g>
<g><path style="opacity:1" fill="#03337f" d="M -0.5,457.5 C -0.5,443.167 -0.5,428.833 -0.5,414.5C 0.691407,410.823 2.52474,407.156 5,403.5C 14.4386,393.082 24.7719,386.082 36,382.5C 37.6282,383.097 39.2949,382.763 41,381.5C 47,381.5 53,381.5 59,381.5C 60.892,382.13 62.5587,383.13 64,384.5C 65,384.167 66,383.833 67,383.5C 70.454,385.513 74.1207,387.846 78,390.5C 78.3333,390.167 78.6667,389.833 79,389.5C 87.6454,396.754 94.4787,404.92 99.5,414C 98.5419,415.147 98.8753,416.147 100.5,417C 99.5419,418.147 99.8753,419.147 101.5,420C 100.903,421.628 101.237,423.295 102.5,425C 105.904,441.975 100.738,458.475 87,474.5C 83.395,476.145 80.0617,478.812 77,482.5C 75.4345,481.939 74.1011,482.606 73,484.5C 71.4345,483.939 70.1011,484.606 69,486.5C 66.8159,485.892 64.8159,486.559 63,488.5C 62,488.167 61,487.833 60,487.5C 53.9621,489.332 47.9621,489.999 42,489.5C 40.6667,488.833 39.3333,488.167 38,487.5C 37,487.833 36,488.167 35,488.5C 32,486.833 29,485.167 26,483.5C 25.6667,483.833 25.3333,484.167 25,484.5C 20.2954,481.379 15.4621,477.712 10.5,473.5C 5.62256,468.414 1.9559,463.08 -0.5,457.5 Z"/></g>
<g><path style="opacity:1" fill="#033380" d="M 499.5,413.5 C 499.5,427.833 499.5,442.167 499.5,456.5C 498.711,456.783 498.044,457.283 497.5,458C 497.5,459.333 497.5,460.667 497.5,462C 494.724,464.394 492.557,467.227 491,470.5C 476.294,485.829 458.294,491.829 437,488.5C 414.754,480.924 400.921,465.758 395.5,443C 395.869,437.553 395.869,432.219 395.5,427C 401.307,402.527 416.473,387.36 441,381.5C 447,381.5 453,381.5 459,381.5C 460.892,382.13 462.559,383.13 464,384.5C 465,384.167 466,383.833 467,383.5C 470.667,385.833 474.333,388.167 478,390.5C 478.333,390.167 478.667,389.833 479,389.5C 486.896,396.085 493.729,404.085 499.5,413.5 Z"/></g>
<g><path style="opacity:1" fill="#213af6" d="M 267.5,385.5 C 269.167,385.5 270.833,385.5 272.5,385.5C 272.337,387.857 272.503,390.19 273,392.5C 275.925,389.941 278.925,389.941 282,392.5C 283.379,397.036 283.879,401.703 283.5,406.5C 281.833,406.5 280.167,406.5 278.5,406.5C 278.665,403.15 278.498,399.817 278,396.5C 276.688,394.342 275.022,394.009 273,395.5C 272.501,399.152 272.335,402.818 272.5,406.5C 270.833,406.5 269.167,406.5 267.5,406.5C 267.5,399.5 267.5,392.5 267.5,385.5 Z"/></g>
<g><path style="opacity:1" fill="#213af4" d="M 214.5,386.5 C 219.833,386.5 225.167,386.5 230.5,386.5C 230.5,387.833 230.5,389.167 230.5,390.5C 228.5,390.5 226.5,390.5 224.5,390.5C 224.5,395.833 224.5,401.167 224.5,406.5C 222.833,406.5 221.167,406.5 219.5,406.5C 219.5,401.167 219.5,395.833 219.5,390.5C 217.833,390.5 216.167,390.5 214.5,390.5C 214.5,389.167 214.5,387.833 214.5,386.5 Z"/></g>
<g><path style="opacity:1" fill="#033686" d="M 40.5,389.5 C 46.9405,389.619 53.1072,389.619 59,389.5C 65.6599,391.75 72.1599,395.083 78.5,399.5C 87.4385,406.821 92.4385,415.654 93.5,426C 94.1667,426.667 94.8333,427.333 95.5,428C 95.5,433.333 95.5,438.667 95.5,444C 93.8753,444.853 93.5419,445.853 94.5,447C 93.1667,449.667 91.8333,452.333 90.5,455C 90.8333,455.333 91.1667,455.667 91.5,456C 86.7682,462.739 81.2682,468.905 75,474.5C 74.6667,474.167 74.3333,473.833 74,473.5C 70.1207,476.154 66.454,478.487 63,480.5C 61.2215,479.521 59.5548,479.854 58,481.5C 57.6667,481.167 57.3333,480.833 57,480.5C 50.6968,482.661 44.3635,482.328 38,479.5C 35.8159,480.108 33.8159,479.441 32,477.5C 30.4345,478.061 29.1011,477.394 28,475.5C 27.6667,475.833 27.3333,476.167 27,476.5C 13.1632,467.736 4.99656,455.569 2.5,440C 3.83333,436.667 3.83333,433.333 2.5,430C 4.12472,429.147 4.45805,428.147 3.5,427C 5.01103,422.997 6.1777,419.164 7,415.5C 10.5118,410.283 13.8451,405.617 17,401.5C 17.3333,401.833 17.6667,402.167 18,402.5C 19.7546,400.745 21.9213,398.579 24.5,396C 27.4408,394.688 30.2742,393.188 33,391.5C 33.3333,391.833 33.6667,392.167 34,392.5C 36.294,391.578 38.4606,390.578 40.5,389.5 Z"/></g>
<g><path style="opacity:1" fill="#033686" d="M 440.5,389.5 C 446.941,389.619 453.107,389.619 459,389.5C 463.278,390.912 467.778,392.745 472.5,395C 479.531,399.363 485.531,405.363 490.5,413C 490.167,413.333 489.833,413.667 489.5,414C 492.325,417.945 494.325,421.945 495.5,426C 497.974,451.637 487.141,469.804 463,480.5C 461.221,479.521 459.555,479.854 458,481.5C 439.988,483.417 424.988,477.75 413,464.5C 411,461.167 409,457.833 407,454.5C 406.178,450.836 405.011,447.003 403.5,443C 404.479,441.221 404.146,439.555 402.5,438C 403.833,436 403.833,434 402.5,432C 403.167,431.333 403.833,430.667 404.5,430C 403.903,427.564 403.903,424.897 404.5,422C 407.662,416.041 411.162,409.874 415,403.5C 418.435,401.681 421.769,399.014 425,395.5C 426.566,396.061 427.899,395.394 429,393.5C 429.333,393.833 429.667,394.167 430,394.5C 433.422,392.534 436.922,390.867 440.5,389.5 Z"/></g>
<g><path style="opacity:1" fill="#2139f1" d="M 236.5,390.5 C 244.059,389.73 247.726,393.063 247.5,400.5C 244.102,400.18 240.768,400.513 237.5,401.5C 240.482,401.713 243.482,402.047 246.5,402.5C 243.813,406.314 240.147,407.48 235.5,406C 229.974,400.357 230.308,395.19 236.5,390.5 Z"/></g>
<g><path style="opacity:1" fill="#2138ef" d="M 254.5,390.5 C 259.311,389.74 262.978,391.407 265.5,395.5C 262.826,396.782 260.326,396.449 258,394.5C 254.574,395.856 253.741,398.19 255.5,401.5C 258.482,401.713 261.482,402.047 264.5,402.5C 261.813,406.314 258.147,407.48 253.5,406C 247.974,400.357 248.308,395.19 254.5,390.5 Z"/></g>
<g><path style="opacity:1" fill="#131a71" d="M 238.5,394.5 C 240.346,394.222 241.68,394.889 242.5,396.5C 240.5,397.833 238.5,397.833 236.5,396.5C 237.243,395.818 237.909,395.151 238.5,394.5 Z"/></g>
<g><path style="opacity:1" fill="#023b90" d="M 42.5,395.5 C 46.7155,395.736 50.8822,395.736 55,395.5C 73.158,400.323 84.3246,411.489 88.5,429C 88.1667,429.333 87.8333,429.667 87.5,430C 88.9104,432.844 89.5771,435.511 89.5,438C 88.8333,438.667 88.1667,439.333 87.5,440C 88.0974,442.436 88.0974,445.103 87.5,448C 82.8075,457.3 76.6408,464.8 69,470.5C 68.6667,470.167 68.3333,469.833 68,469.5C 64.7934,471.508 61.7934,473.175 59,474.5C 52.5437,474.92 45.877,474.92 39,474.5C 15.3872,463.927 6.2205,447.427 11.5,425C 11.1667,424.667 10.8333,424.333 10.5,424C 11.8333,422 13.1667,420 14.5,418C 16.4753,412.846 19.8086,408.179 24.5,404C 27.196,403.31 29.3626,401.81 31,399.5C 31.3333,399.833 31.6667,400.167 32,400.5C 33.4413,399.13 35.108,398.13 37,397.5C 38.3333,397.5 39.6667,397.5 41,397.5C 41.7172,396.956 42.2172,396.289 42.5,395.5 Z"/></g>
<g><path style="opacity:1" fill="#023b90" d="M 442.5,395.5 C 446.716,395.736 450.882,395.736 455,395.5C 469.535,398.599 480.368,407.433 487.5,422C 487.5,424 487.5,426 487.5,428C 488.167,428.667 488.833,429.333 489.5,430C 488.167,433.333 488.167,436.667 489.5,440C 486.755,450.105 481.922,458.939 475,466.5C 472.908,466.929 470.908,468.262 469,470.5C 467.434,469.939 466.101,470.606 465,472.5C 464.667,472.167 464.333,471.833 464,471.5C 462.559,472.87 460.892,473.87 459,474.5C 453.211,475.413 447.211,475.413 441,474.5C 415.917,465.006 406.084,447.839 411.5,423C 412.299,420.703 413.466,418.203 415,415.5C 417.355,413.105 419.355,410.438 421,407.5C 424.881,405.554 428.214,402.888 431,399.5C 431.333,399.833 431.667,400.167 432,400.5C 433.816,398.559 435.816,397.892 438,398.5C 439.878,397.947 441.378,396.947 442.5,395.5 Z"/></g>
<g><path style="opacity:1" fill="#061e56" d="M -0.5,339.5 C 24.8333,339.5 50.1667,339.5 75.5,339.5C 79.3123,340.324 83.3123,340.824 87.5,341C 89.9012,341.795 92.0679,342.962 94,344.5C 94.3333,344.167 94.6667,343.833 95,343.5C 100.921,348.34 107.087,352.507 113.5,356C 134.815,374.752 146.815,396.752 149.5,422C 150.167,423.333 150.833,424.667 151.5,426C 150.676,432.256 150.676,438.256 151.5,444C 150.833,445.333 150.167,446.667 149.5,448C 149.5,451.333 149.5,454.667 149.5,458C 148.167,460.667 146.833,463.333 145.5,466C 145.833,466.333 146.167,466.667 146.5,467C 145.167,469.667 143.833,472.333 142.5,475C 142.833,475.333 143.167,475.667 143.5,476C 140.652,482.184 136.985,487.851 132.5,493C 132.833,493.333 133.167,493.667 133.5,494C 131.627,495.704 129.96,497.537 128.5,499.5C 124.167,499.5 119.833,499.5 115.5,499.5C 117.767,496.729 120.267,494.062 123,491.5C 125.577,486.018 128.91,481.018 133,476.5C 132.978,472.048 134.478,468.214 137.5,465C 137.043,464.586 136.709,464.086 136.5,463.5C 138.198,460.208 139.198,456.708 139.5,453C 137.905,449.873 138.572,447.206 141.5,445C 140.32,438.513 140.32,432.013 141.5,425.5C 140.376,424.086 139.376,422.586 138.5,421C 139.217,416.802 139.217,413.135 138.5,410C 135.121,407.449 133.955,404.283 135,400.5C 132.488,396.81 130.488,392.81 129,388.5C 123.174,378.664 115.84,369.998 107,362.5C 106,362.5 105,362.5 104,362.5C 102.812,361.437 102.312,360.103 102.5,358.5C 96.8874,356.964 91.8874,354.297 87.5,350.5C 85.4154,351.647 83.9154,350.98 83,348.5C 81.836,348.165 80.5026,348.165 79,348.5C 78.6924,347.692 78.1924,347.025 77.5,346.5C 75.2966,346.587 73.1299,346.587 71,346.5C 70.3333,345.833 69.6667,345.167 69,344.5C 67.2215,345.479 65.5548,345.146 64,343.5C 62.176,344.238 60.176,344.572 58,344.5C 56.8061,343.57 55.4728,342.903 54,342.5C 49.8877,343.607 45.721,343.607 41.5,342.5C 39.8129,342.76 38.3129,343.427 37,344.5C 33.979,343.796 31.1457,343.796 28.5,344.5C 26.4276,345.284 24.2609,346.617 22,348.5C 20.3333,348.167 18.6667,347.833 17,347.5C 15.406,348.716 13.906,350.049 12.5,351.5C 10.9299,351.306 9.4299,351.306 8,351.5C 5.85975,354.656 3.02642,356.99 -0.5,358.5C -0.5,352.167 -0.5,345.833 -0.5,339.5 Z"/></g>
<g><path style="opacity:1" fill="#01419c" d="M 42.5,409.5 C 46.6677,409.537 50.8344,409.537 55,409.5C 56.892,410.13 58.5587,411.13 60,412.5C 60.3333,412.167 60.6667,411.833 61,411.5C 63.4087,413.62 65.9087,415.62 68.5,417.5C 79.0087,431.866 77.1753,445.533 63,458.5C 61.4345,457.939 60.1011,458.606 59,460.5C 58.6667,460.167 58.3333,459.833 58,459.5C 53.6083,462.004 49.2749,462.337 45,460.5C 43,460.5 41,460.5 39,460.5C 32.8333,457 28,452.167 24.5,446C 24.8333,445.667 25.1667,445.333 25.5,445C 24.991,442.43 23.991,440.097 22.5,438C 23.8333,436 23.8333,434 22.5,432C 24.1247,431.147 24.4581,430.147 23.5,429C 26.8869,421.696 31.3869,415.862 37,411.5C 37.3333,411.833 37.6667,412.167 38,412.5C 39.4087,411.219 40.9087,410.219 42.5,409.5 Z"/></g>
<g><path style="opacity:1" fill="#01419c" d="M 442.5,409.5 C 447.605,409.672 452.438,409.672 457,409.5C 458.101,411.394 459.434,412.061 461,411.5C 462.101,413.394 463.434,414.061 465,413.5C 473.904,421.498 477.404,430.998 475.5,442C 473.875,442.853 473.542,443.853 474.5,445C 470.409,451.76 465.242,456.926 459,460.5C 458.667,460.167 458.333,459.833 458,459.5C 447.377,463.56 437.71,461.227 429,452.5C 426.562,448.796 424.728,444.963 423.5,441C 421.591,426.78 427.924,416.28 442.5,409.5 Z"/></g>
</svg>
